<svg width="43" height="43" viewBox="0 0 43 43" fill="none" xmlns="http://www.w3.org/2000/svg">
<path d="M43 21.2203C42.997 32.9233 33.5338 42.4211 21.8714 42.4301C10.179 42.4377 0.687215 32.9008 0.714291 21.1722C0.741368 9.4662 10.2196 -0.0150245 21.882 1.78744e-05C33.5458 0.0150603 43.0045 9.51735 43 21.2203ZM41.058 21.2655C41.0686 10.6094 32.532 2.00216 21.9843 1.93598C11.3087 1.86979 2.63972 10.6019 2.65175 21.1632C2.66379 31.8192 11.1838 40.4265 21.7315 40.4927C32.4056 40.5589 41.0941 31.8282 41.0595 21.2655H41.058Z" fill="#016956"/>
<path d="M23.7728 29.8789H19.9791V21.2235H18.0597V18.3504H19.9776C19.9776 17.4869 19.955 16.6927 19.9821 15.9C20.0513 13.9099 21.1644 12.7651 23.1666 12.6297C24.2842 12.553 25.4049 12.5229 26.5842 12.4673V15.4637C25.9961 15.4637 25.4079 15.4698 24.8198 15.4637C24.1398 15.4562 23.7954 15.7947 23.7833 16.4641C23.7728 17.0597 23.7818 17.6554 23.7818 18.3203H26.6429C26.5391 19.3236 26.4443 20.2457 26.3451 21.2084H23.7743V29.8804L23.7728 29.8789Z" fill="#016956"/>
</svg>
