<svg width="41" height="63" viewBox="0 0 41 63" fill="none" xmlns="http://www.w3.org/2000/svg">
<path d="M11.7003 5.86196C13.3429 2.2451 16.1432 0.0213284 20.3578 0.000149609C24.6241 -0.0210292 27.4644 2.20745 29.1799 5.99374C30.1165 5.87137 31.0342 5.64782 31.952 5.65488C34.8299 5.67841 37.3125 7.71628 37.8867 10.4272C38.5033 13.3357 37.1196 16.2372 34.4181 17.4326C33.6486 17.7738 33.418 18.1574 33.4227 18.9646C33.4392 21.9319 33.6321 24.9111 32.7615 27.8243C31.7872 31.0812 30.18 33.9591 27.6809 36.2653C26.8691 37.0159 27.2691 37.8466 27.0997 38.642C26.8549 39.7833 27.6315 39.988 28.4269 40.2751C35.5947 42.8636 40.8612 50.1797 40.7694 57.9029C40.7553 58.9995 40.7859 60.0984 40.7694 61.195C40.7506 62.4657 40.2729 62.9646 38.981 62.9835C36.9031 63.0117 34.8252 62.9952 32.7473 62.9952C22.6733 62.9952 12.5993 62.9952 2.52523 62.9952C0.308522 62.9952 0.108501 62.7175 0.0261387 60.4773C-0.122113 56.4604 0.322641 52.5941 2.33462 49.0125C4.71606 44.7744 8.17526 41.8 12.7263 40.1339C13.4911 39.8539 13.7217 39.5409 13.7359 38.7455C13.7547 37.5242 13.5005 36.6135 12.5663 35.6581C9.10948 32.1236 7.42459 27.789 7.37752 22.8332C7.36576 21.5013 7.32575 20.1647 7.394 18.8351C7.434 18.0892 7.17044 17.7574 6.49978 17.4632C3.99363 16.369 2.65937 14.0793 2.84056 11.3449C3.01235 8.74933 4.67841 6.50674 7.27163 5.91138C8.62001 5.60076 10.1002 5.85726 11.698 5.85726L11.7003 5.86196ZM30.1659 21.9296C30.1659 20.3365 30.1659 18.8893 30.1659 17.442C30.1659 15.3618 30.2553 15.2465 32.2532 14.7759C33.7404 14.4229 34.6534 13.4487 34.7852 12.0673C34.9005 10.8507 34.1969 9.64826 33.0603 9.11879C31.8319 8.54931 30.58 8.77757 29.5446 9.89063C28.9446 10.5331 28.2198 10.9896 27.5021 10.5189C26.9797 10.1777 26.5255 9.37999 26.4619 8.74228C26.156 5.66194 23.4922 3.13931 20.3907 3.15343C17.2821 3.16755 14.6771 5.669 14.3571 8.78463C14.2912 9.41529 13.8088 10.1895 13.2817 10.5354C12.6181 10.9684 11.9051 10.5589 11.3285 9.94711C10.2225 8.77287 8.98476 8.53519 7.7258 9.13997C6.54214 9.70944 5.87619 10.9449 6.06444 12.2227C6.27388 13.6369 7.23163 14.5406 8.83415 14.8371C10.3426 15.1171 10.6461 15.4748 10.6508 17.0114C10.6555 18.6422 10.6508 20.2753 10.6508 21.9296H30.1635H30.1659ZM37.4702 59.7666C38.4727 52.7729 33.7898 45.518 26.8173 43.1201C24.8782 42.4542 23.4051 43.1601 22.7321 45.0756C22.5651 45.5533 22.3956 46.031 22.2262 46.5087C21.5814 48.3301 21.3555 48.4925 19.4353 48.4948C17.9669 48.4948 16.4985 48.4948 15.0254 48.4948V59.7666H37.4678H37.4702ZM10.9426 25.29C10.9403 28.0785 13.3523 32.4084 16.0514 34.5168C18.8541 36.7053 21.9838 36.7077 24.7747 34.4886C26.9161 32.7849 28.3563 30.5705 29.2693 28.0102C29.5752 27.1513 29.7823 26.2548 30.0576 25.29H10.9426ZM18.0022 45.2404C17.6351 43.4213 15.9949 42.4283 14.3477 42.9907C9.33068 44.7038 5.88089 48.0501 4.08776 53.0506C3.31355 55.2085 3.10647 57.444 3.28532 59.7596H11.7945C11.7945 59.2772 11.7945 58.8583 11.7945 58.4394C11.7945 54.952 11.7851 51.4646 11.8039 47.9771C11.8133 46.3275 12.8699 45.2757 14.5077 45.2451C15.642 45.2239 16.7762 45.2404 18.0022 45.2404ZM20.4095 41.4093C21.2637 41.0258 22.1462 40.5669 23.0757 40.2351C23.8287 39.9668 24.024 39.595 23.8099 39.1503H17.0021C16.788 39.6515 17.0633 39.9857 17.7457 40.2327C18.6729 40.5693 19.5577 41.0258 20.4095 41.407V41.4093Z" fill="#558E60"/>
<path d="M27.102 51.4457C27.095 52.3564 26.349 53.0506 25.4195 53.0129C24.5817 52.98 23.8428 52.227 23.8546 51.4175C23.8664 50.568 24.7135 49.7749 25.5677 49.8173C26.4149 49.8597 27.1114 50.5986 27.1044 51.4457H27.102Z" fill="#558E60"/>
<path d="M27.102 56.8488C27.0902 57.7524 26.3231 58.4631 25.4124 58.4207C24.5817 58.3807 23.8405 57.6112 23.8546 56.8041C23.8687 55.9475 24.7112 55.1686 25.5748 55.2157C26.429 55.2604 27.1161 55.9922 27.1044 56.8488H27.102Z" fill="#558E60"/>
<path d="M18.0799 53.0154C17.1409 53.0342 16.4467 52.3518 16.4561 51.4152C16.4656 50.5657 17.1668 49.8386 18.0022 49.815C18.8446 49.7915 19.5577 50.4716 19.5953 51.3352C19.6377 52.3212 19.0305 52.9942 18.0799 53.0154Z" fill="#558E60"/>
<path d="M18.0587 55.2108C18.9553 55.2202 19.6306 55.9638 19.5977 56.9051C19.5647 57.8064 18.9152 58.4323 18.0234 58.4229C17.1056 58.4135 16.4185 57.6793 16.4585 56.7545C16.4938 55.905 17.2257 55.2014 18.0587 55.2108Z" fill="#558E60"/>
<path d="M20.4025 34.0414C18.8941 33.3872 17.5151 32.8812 16.2326 32.1988C15.4207 31.7682 15.256 30.6269 15.769 29.9515C16.3408 29.2032 17.1221 28.9396 17.9222 29.5091C19.6118 30.7092 21.2261 30.6598 22.9086 29.5021C23.7205 28.9444 24.537 29.1844 25.0477 29.968C25.5465 30.7351 25.5065 31.6694 24.6712 32.1282C23.3322 32.8624 21.8826 33.3919 20.4025 34.0414Z" fill="#558E60"/>
</svg>
