<svg width="65" height="64" viewBox="0 0 65 64" fill="none" xmlns="http://www.w3.org/2000/svg">
<path d="M14.4908 55.1633C14.4908 56.8917 14.5362 58.5646 14.4782 60.2299C14.4101 62.251 13.0778 63.6464 11.2359 63.7423C9.1946 63.8482 7.54441 62.2939 7.55451 60.2829C7.56712 58.2416 9.34094 56.6596 11.3999 56.8665C11.7658 56.9044 12.124 57.0053 12.5454 57.086V55.6125C11.8389 55.0447 11.2914 54.6082 10.7464 54.1692C11.246 53.7352 11.7456 53.2987 12.2452 52.8647C12.3385 52.9404 12.4294 53.0161 12.5227 53.0918V51.487C10.6631 51.3407 8.82116 51.3179 7.02211 51.0227C4.99849 50.6922 4.92279 50.455 5.24577 48.4238C5.63939 45.9359 6.05067 43.448 6.44682 40.9602C6.55279 40.294 6.73194 39.6329 7.57217 39.7515C8.41492 39.8701 8.41745 40.564 8.31399 41.2276C7.90776 43.7962 7.49143 46.3624 7.05996 49.0319C9.06087 49.7308 11.0719 49.7864 12.987 49.095C16.5952 47.7955 20.11 47.851 23.7081 49.1177C25.7847 49.8494 27.9648 49.698 30.0288 48.9613C33.2106 47.8258 36.3393 47.8107 39.5236 48.9461C41.8097 49.7611 44.1689 49.7838 46.4574 48.9764C49.725 47.8258 52.927 47.8258 56.1971 48.9915C58.2459 49.7233 60.3705 49.7586 62.548 49.0496C61.8364 44.6239 61.14 40.2764 60.4361 35.9289C60.0727 33.6908 59.7043 31.4527 59.3208 29.2171C59.0533 27.6552 58.6698 27.3398 57.0524 27.3398C49.2305 27.3348 41.4085 27.3398 33.589 27.3398C26.6073 27.3398 19.6281 27.3398 12.6464 27.3398C10.8902 27.3398 10.5622 27.6098 10.2569 29.3761C9.85568 31.6949 9.46963 34.0137 9.10376 36.3376C8.99274 37.0391 8.73537 37.6926 7.9557 37.4327C7.61002 37.3166 7.23406 36.5395 7.28452 36.1105C7.54189 33.9052 7.93299 31.7151 8.29633 29.4114C6.3913 28.9723 5.21801 27.6325 4.20368 26.1009C3.424 24.9251 2.44247 24.1227 0.936113 24.0193C0.603049 23.9966 0.310356 23.4061 0 23.0781C0.350727 22.7905 0.683791 22.2833 1.05218 22.2581C2.77806 22.137 4.11789 22.9494 5.18521 24.264C5.89928 25.1421 6.56036 26.0732 7.35265 26.873C7.96074 27.4912 8.54108 27.5997 9.31319 26.7469C9.91876 26.0807 11.0037 25.8007 11.9222 25.4878C12.3991 25.3238 12.9769 25.46 13.6405 25.46C13.0223 22.4877 12.4319 19.7046 11.8642 16.9164C11.3545 14.4109 11.7557 13.77 14.2663 13.0988C13.8903 11.378 14.3596 9.83628 15.2932 8.35263C15.5682 7.91611 15.6086 7.22475 15.5253 6.68731C15.3134 5.31973 14.9929 3.96981 14.6775 2.61988C14.4631 1.69639 14.7759 1.01512 15.601 0.649253C16.2445 0.36413 16.9434 0.14461 17.6398 0.0588207C19.5322 -0.170792 20.0293 0.225353 20.4002 2.07739C20.5163 2.65269 20.6475 3.22798 20.7307 3.81084C20.9679 5.47364 21.4953 6.85384 23.0344 7.89088C23.8393 8.43337 24.2658 9.63442 24.6846 10.6134C25.0227 11.4032 25.0959 12.3065 25.2927 13.1972C27.2583 13.2754 29.0296 13.452 30.758 12.0138C32.0903 10.9061 33.9827 10.4822 35.595 9.69246C35.9457 9.52088 36.3595 9.11717 36.415 8.76644C36.7431 6.70245 38.1359 5.35 40.0031 5.41056C41.8753 5.47364 43.2227 6.88917 43.3816 8.96073C43.3943 9.12473 43.4195 9.28622 43.4447 9.49312C49.7401 11.0651 53.7016 14.8171 54.5797 21.438C57.0928 22.4751 57.2694 22.7627 56.9288 25.349C57.1205 25.3843 57.3148 25.4348 57.5116 25.4525C59.7926 25.6468 60.8347 26.5526 61.2132 28.8285C62.1064 34.2156 62.9593 39.6077 63.8298 44.9998C64.0367 46.2841 64.1679 47.5886 64.4732 48.8502C64.7735 50.0891 64.3041 50.6165 63.151 50.9193C60.5143 51.6132 57.8977 51.6283 55.3316 50.725C52.6393 49.7763 49.995 49.799 47.3103 50.7073C44.4288 51.6813 41.5346 51.6636 38.6531 50.6594C36.0996 49.7712 33.5436 49.7662 30.9901 50.6518C28.0657 51.6662 25.1792 51.5375 22.2018 50.7225C20.4557 50.2456 18.5608 50.0639 16.7491 50.132C14.4378 50.2203 14.2991 50.5887 14.6346 53.1271C15.1292 53.1523 15.654 53.2053 16.1789 53.2053C29.4661 53.2104 42.7559 53.2078 56.0431 53.2078C56.4216 53.2078 56.8001 53.1927 57.1786 53.2129C57.8674 53.2457 58.7707 53.0464 58.8338 54.0859C58.9045 55.239 57.9229 55.0498 57.0146 55.1558C57.0146 56.8387 57.0398 58.5444 57.007 60.2476C56.9717 62.0694 55.7858 63.4647 54.1204 63.7019C52.6494 63.9113 51.4509 63.4243 50.6409 62.1728C49.8915 61.0172 49.8663 59.7732 50.5476 58.5873C51.2869 57.303 52.4551 56.7378 53.9388 56.8715C54.2668 56.9018 54.5923 56.9851 55.0162 57.0608V55.1633H14.4908ZM52.5056 21.6727C52.5207 15.1628 46.0563 10.5251 38.151 11.1988C32.1306 11.711 26.6124 17.03 27.4021 21.6727C27.8437 21.6727 28.3004 21.6727 28.7571 21.6727C33.3796 21.6727 37.9996 21.6727 42.6222 21.6727C43.0006 21.6727 43.4296 21.5819 43.7425 21.7307C44.0982 21.8998 44.6382 22.3691 44.5852 22.5659C44.4818 22.9469 44.0604 23.3052 43.6844 23.5222C43.4296 23.6685 43.0284 23.5575 42.6928 23.5575C37.1468 23.5575 31.6007 23.5575 26.0547 23.5601C25.6157 23.5601 25.1741 23.5979 24.7351 23.6181C24.8209 25.127 25.212 25.4499 26.9025 25.4525C35.5572 25.4575 44.2143 25.455 52.8689 25.4525C53.2045 25.4525 53.5477 25.4626 53.8732 25.3919C54.7664 25.1976 55.2231 24.6602 55.1045 23.5575C52.768 23.5575 50.4694 23.5575 48.1707 23.5575C47.4415 23.5575 46.6114 23.6181 46.6416 22.5659C46.6694 21.597 47.4844 21.6828 48.1505 21.6752C49.6064 21.6626 51.0623 21.6702 52.5106 21.6702L52.5056 21.6727ZM24.9672 21.597C25.6989 19.4169 26.3979 17.3353 27.1145 15.1931C25.7368 15.1931 24.2708 15.2486 22.8124 15.1552C22.4263 15.13 22.0706 14.6455 21.6997 14.3705C21.9772 14.0122 22.2194 13.6186 22.5424 13.3082C22.6888 13.1669 22.9865 13.1846 23.254 13.124C22.9915 11.4183 22.8553 9.74797 21.2177 8.79419C19.9536 8.05742 19.3606 6.9472 19.1462 5.52663C18.962 4.30035 18.6365 3.09677 18.3564 1.79984C17.6903 1.9588 17.1781 2.07992 16.5624 2.22879C16.8399 3.56609 17.0519 4.80247 17.3622 6.01109C17.7105 7.35848 17.5666 8.57467 16.7365 9.71012C16.517 10.0104 16.3403 10.3611 16.2192 10.7144C15.6187 12.5008 16.1435 13.2426 17.9905 13.2578C18.0738 13.2578 18.1596 13.2578 18.2428 13.2578C18.9393 13.2653 19.6987 13.2805 19.7063 14.2191C19.7164 15.1577 18.9721 15.1981 18.2656 15.1956C16.7213 15.1956 15.1797 15.1956 13.4614 15.1956C14.1578 18.5767 14.8062 21.7736 15.4951 24.963C15.538 25.1598 15.8963 25.4222 16.1133 25.4247C18.3614 25.4575 20.6121 25.4449 22.878 25.4449C22.5348 22.735 22.878 22.1723 24.9622 21.5945L24.9672 21.597ZM12.5883 60.2148C12.5076 59.42 12.0332 58.8548 11.1097 58.764C10.2241 58.6782 9.46963 59.3897 9.48729 60.2829C9.50747 61.2165 10.0273 61.7641 10.9407 61.865C11.7885 61.9583 12.5681 61.1963 12.5883 60.2148ZM51.9732 60.235C52.0085 61.2216 52.7983 61.971 53.6436 61.865C54.5544 61.7514 55.0667 61.1963 55.0742 60.2627C55.0818 59.367 54.3147 58.6656 53.4291 58.7665C52.5081 58.8725 52.0388 59.4402 51.9732 60.235ZM41.4034 9.16006C41.4337 7.93378 40.8912 7.3383 39.839 7.38119C38.8045 7.42409 38.3175 8.05489 38.4059 9.16006H41.406H41.4034Z" fill="#558E60"/>
</svg>
