<svg width="65" height="52" viewBox="0 0 65 52" fill="none" xmlns="http://www.w3.org/2000/svg">
<path d="M62.7334 20.7646H56.067C56.067 21.2591 56.1806 21.8672 56.0292 22.3996C55.9182 22.7857 55.4514 23.0657 55.1435 23.3937C54.8357 23.0683 54.5253 22.7453 54.22 22.4198C54.1973 22.3971 54.215 22.339 54.2125 22.2961C53.9677 19.7149 53.9728 19.561 51.3739 19.4651C49.6455 19.402 47.8969 19.831 46.1634 20.0909C45.5452 20.1842 44.9523 20.5349 44.3442 20.5501C43.9506 20.5602 43.5468 20.1691 43.1456 19.9597C43.4131 19.561 43.5973 18.9377 43.9632 18.799C47.0364 17.6433 50.193 17.0605 53.4732 17.825C53.6649 17.8704 53.8668 17.8679 54.1242 17.8931V15.925H40.9303C40.9303 17.7468 40.9303 19.5383 40.9303 21.3272C40.9303 21.7057 41.0463 22.1473 40.8899 22.4475C40.6931 22.8235 40.3096 23.2348 39.9336 23.3256C39.7292 23.3761 39.0908 22.7453 39.1287 22.498C39.3886 20.8781 38.3642 20.6914 37.1681 20.2751C33.9309 19.1522 30.797 19.1421 27.5522 20.2751C24.6984 21.2717 21.7488 21.1809 18.8799 20.1918C15.8646 19.1522 12.9074 19.127 9.87705 20.2069C7.11413 21.1935 4.27551 21.143 1.43689 20.3634C0.432655 20.0883 -0.0265703 19.6241 0.00118509 18.5214C0.0693119 15.8746 0.0188476 13.2227 0.0264172 10.5733C0.0289405 9.09468 0.182857 8.94581 1.72706 8.94581C13.6291 8.94329 25.5336 8.94581 37.4356 8.94581C37.9276 8.94581 38.4197 8.94581 39.2347 8.94581C39.0227 7.00546 38.9092 5.21902 38.5912 3.46791C38.4903 2.9128 37.8418 2.45863 37.4457 1.95903C37.0597 2.47376 36.5399 2.93804 36.3204 3.51585C36.0453 4.24759 36.0983 5.09791 35.8485 5.84226C35.7072 6.26616 35.2429 6.58156 34.925 6.94743C34.6247 6.56894 34.0873 6.20055 34.0696 5.80693C33.9889 4.13909 34.3321 2.5318 35.3943 1.18188C36.6055 -0.357283 38.508 -0.443072 39.5021 1.21973C40.2465 2.46367 40.5896 3.99779 40.8748 5.45116C41.0867 6.53362 40.9176 7.68925 40.9176 8.87516H54.379C54.1544 6.96509 54.0005 5.108 53.6801 3.27867C53.5943 2.79169 53.0038 2.3905 52.6456 1.95146C52.2595 2.41068 51.7271 2.81188 51.5252 3.33923C51.2326 4.10881 51.2679 5.00203 50.9928 5.7817C50.8364 6.22831 50.3419 6.55885 49.9987 6.93986C49.7211 6.53867 49.2241 6.14757 49.2064 5.73881C49.1383 4.11385 49.4814 2.55198 50.4983 1.2273C51.7271 -0.369899 53.6649 -0.448119 54.6894 1.27271C55.411 2.48638 55.7466 3.98012 56.014 5.39313C56.221 6.48315 56.0544 7.64131 56.0544 8.94329C58.2521 8.94329 60.3388 8.94329 62.4255 8.94329C63.8957 8.94329 64.6308 9.69773 64.6308 11.2066C64.6308 12.4253 64.6283 13.6466 64.6308 14.8653C64.6334 15.5718 64.6182 16.3161 63.6644 16.306C62.693 16.2959 62.7384 15.5062 62.7334 14.8274C62.7233 13.5355 62.7308 12.2411 62.7308 10.8786H56.0721C56.0721 13.3387 56.0468 15.7257 56.1099 18.1101C56.115 18.3524 56.6448 18.7889 56.9224 18.7813C58.8754 18.7409 60.846 18.7359 62.7763 18.4634C64.2826 18.2514 64.6258 18.3448 64.6283 19.8537C64.6359 24.0599 64.6283 28.2661 64.6308 32.4723C64.6308 33.1611 64.6687 33.9433 63.7199 33.9685C62.6602 33.9963 62.7409 33.1334 62.7334 32.4218C62.7207 31.0441 62.7308 29.6665 62.7308 28.1525C62.0622 28.2459 61.5424 28.3367 61.0201 28.3897C58.7315 28.6269 56.4909 28.4377 54.3134 27.6428C51.6893 26.6865 49.0323 26.679 46.4031 27.5873C42.9741 28.7707 39.5778 28.7808 36.1538 27.5772C33.6104 26.6815 31.0292 26.6865 28.4858 27.5823C25.1047 28.7707 21.7437 28.7884 18.3576 27.6201C15.6855 26.6966 12.9932 26.679 10.3262 27.6504C7.644 28.6269 4.90884 28.69 1.93901 28.1122C1.93901 30.706 1.90874 33.2141 1.98443 35.7171C1.992 35.972 2.58243 36.3454 2.95839 36.4312C5.09556 36.9232 7.2302 36.8173 9.29166 36.0704C12.6728 34.8466 16.016 34.9425 19.4274 36.0048C20.8076 36.4337 22.319 36.4362 23.7446 36.7441C24.214 36.845 24.9003 37.2311 24.976 37.5944C25.1526 38.4422 24.4032 38.6441 23.7396 38.5658C22.0818 38.364 20.3787 38.2656 18.7941 37.7912C15.8318 36.9056 12.9503 36.7567 10.0209 37.8341C7.46486 38.7727 4.83567 38.7601 2.1005 38.2403C2.03994 38.5381 1.93901 38.803 1.93649 39.0705C1.92388 42.0151 1.95163 44.9597 1.91126 47.9043C1.90117 48.6587 2.21405 48.9388 2.89027 49.075C5.08546 49.5141 7.24534 49.4333 9.35222 48.6738C12.6904 47.4703 16.0211 47.4955 19.3568 48.6461C22.0844 49.5872 24.7968 49.5544 27.5118 48.6057C30.7239 47.4854 33.941 47.4829 37.1505 48.6057C39.9134 49.5721 42.6637 49.562 45.4292 48.6057C48.6816 47.4854 51.9365 47.4728 55.1915 48.6335C57.2984 49.3854 59.4608 49.562 61.6433 49.0574C62.042 48.964 62.6728 48.5502 62.6779 48.2727C62.751 44.9647 62.7233 41.6568 62.7233 38.5633C60.4398 38.4599 58.3203 38.4018 56.2083 38.2504C55.5523 38.2025 54.9038 37.9401 54.2705 37.718C51.6766 36.8072 49.0601 36.7693 46.4788 37.6625C43.0069 38.8611 39.5753 38.8863 36.1084 37.6575C33.6533 36.787 31.1578 36.8324 28.6725 37.5969C28.0064 37.8013 27.2822 38.0511 26.9996 37.1327C26.7246 36.2293 27.4563 35.977 28.1149 35.7802C31.0166 34.9198 33.9283 34.8769 36.7922 35.8862C39.7645 36.9358 42.699 36.9485 45.6815 35.924C48.7623 34.8643 51.8684 34.8592 54.9543 35.9543C57.5759 36.8829 60.2102 36.9586 62.8797 36.1536C64.2044 35.755 64.6233 36.0426 64.6283 37.3648C64.6434 41.2354 64.6106 45.1035 64.651 48.9741C64.6611 49.9077 64.2624 50.3493 63.4247 50.5915C60.5155 51.4317 57.5961 51.4998 54.7423 50.4805C51.7574 49.4132 48.8305 49.4333 45.8581 50.4502C42.7697 51.5049 39.6661 51.4847 36.5828 50.4048C33.7366 49.4081 30.9055 49.4131 28.0593 50.4073C24.9331 51.4998 21.7967 51.4847 18.6654 50.4073C15.7814 49.4157 12.9125 49.4031 10.0209 50.4401C7.11665 51.4797 4.17206 51.4342 1.2199 50.5864C0.379667 50.3442 0.00118509 49.89 0.00623152 48.9615C0.0339869 40.4658 0.023894 31.9676 0.0188476 23.472C0.0188476 22.7957 0.0819281 22.1321 0.929728 22.0918C1.80024 22.0514 1.90369 22.7175 1.91883 23.3937C1.91883 23.477 1.91883 23.5628 1.91883 23.6461C1.97686 26.4443 2.01219 26.5881 4.86342 26.5629C6.47576 26.5478 8.13855 26.2904 9.68024 25.816C12.8065 24.8547 15.8848 24.7639 18.9632 25.8236C21.9456 26.848 24.875 26.8304 27.8524 25.7908C30.8475 24.7462 33.8854 24.7664 36.8805 25.816C39.8125 26.843 42.7117 26.843 45.6487 25.8312C48.7724 24.7538 51.9163 24.7714 55.0426 25.8766C57.1899 26.6361 59.3775 26.8077 61.6232 26.3787C62.4053 26.2298 62.7838 25.9397 62.7435 25.0692C62.6779 23.6107 62.7258 22.1498 62.7258 20.757L62.7334 20.7646ZM1.9264 10.8836C1.9264 13.1344 1.96172 15.3094 1.90874 17.4819C1.88855 18.3271 2.19891 18.6577 3.00381 18.8141C5.29237 19.2531 7.51532 19.0589 9.70042 18.2893C12.7838 17.2018 15.8848 17.1967 18.9606 18.254C21.938 19.2784 24.8675 19.2708 27.8373 18.2312C30.8273 17.1866 33.8476 17.2346 36.8578 18.2262C37.5239 18.4457 38.2027 18.6198 38.947 18.8343V10.8836H1.9264ZM40.9631 13.9039H54.0914V10.919H40.9631V13.9039Z" fill="#558E60"/>
</svg>
