<svg width="65" height="58" viewBox="0 0 65 58" fill="none" xmlns="http://www.w3.org/2000/svg">
<path d="M8.84699 16.453C20.6733 14.3309 32.3608 14.3309 44.0458 16.4176C43.902 15.1585 43.198 14.3713 41.6993 14.1795C38.5351 13.7733 35.3609 13.2939 32.1792 13.1829C27.8973 13.0315 23.6053 13.1879 19.3183 13.2333C18.6497 13.2409 17.9558 13.2661 17.8826 12.4158C17.8019 11.4873 18.5033 11.3863 19.2351 11.3409C25.7979 10.9271 32.3457 11.0205 38.8783 11.8153C39.1987 11.8531 39.5293 11.8203 40.0137 11.8203C40.0137 9.47121 40.0137 7.17004 40.0137 4.87139C40.0137 4.15732 39.986 3.43821 40.044 2.72918C40.1752 1.14208 41.2451 0.0369108 42.8271 0.0268179C49.1352 -0.00850709 55.4432 -0.00850709 61.7513 0.0242947C63.4494 0.0318644 64.6025 1.21273 64.6101 2.91085C64.6378 9.176 64.6353 15.4437 64.6101 21.7088C64.605 23.3666 63.5352 24.56 61.885 24.5954C58.2288 24.6736 54.5677 24.6585 50.9115 24.5853C50.5154 24.5777 50.1318 23.9444 49.7433 23.6012C50.1798 23.306 50.6138 22.766 51.0579 22.7585C54.3784 22.6853 57.7015 22.7231 61.0246 22.7181C62.5259 22.7181 62.7151 22.544 62.7176 21.073C62.7252 15.2267 62.7025 9.3829 62.7378 3.53661C62.7454 2.34061 62.3064 1.90409 61.1053 1.91166C55.259 1.94951 49.4152 1.92428 43.569 1.93185C42.0727 1.93185 41.9188 2.1009 41.9163 3.61483C41.9112 6.47111 41.9163 9.32487 41.9163 12.2468C44.6565 12.7489 45.8626 14.5404 46.3697 17.0863C46.9576 20.0485 47.8029 22.9628 48.3782 25.9276C48.85 28.3575 49.6449 30.6233 51.02 32.6722C52.6046 35.0314 53.2404 37.6051 53.0512 40.4412C52.9377 42.157 52.9679 43.8904 53.0462 45.6112C53.1471 47.8216 52.9149 49.3405 49.6247 50.6526C48.7567 50.9983 48.5321 51.4247 48.5372 52.2978C48.5574 56.5267 48.0426 57.0187 43.8516 57.0187C43.6825 57.0187 43.516 57.0187 43.3469 57.0187C39.8977 57.0187 39.2719 56.4182 39.1104 52.9563C39.1054 52.8377 39.06 52.7191 39.0322 52.593H13.9363C13.9363 53.0825 13.954 53.6149 13.9338 54.1447C13.8682 55.8 12.816 56.9279 11.1784 57.001C9.87646 57.0591 8.56943 57.0591 7.26998 57.001C5.63493 56.9279 4.44145 55.7899 4.56004 54.1422C4.70387 52.1312 4.38846 50.7283 2.1756 49.989C0.654105 49.4793 -0.0246402 48.0335 0.00816158 46.3278C0.0586259 43.7213 -0.0700581 41.1098 0.0611491 38.5084C0.126753 37.2392 0.288239 35.7732 0.96446 34.7765C4.03269 30.2474 4.9032 25.0243 6.0765 19.877C6.37423 18.5674 6.66945 17.2553 7.00252 15.9534C7.50968 13.9676 8.78895 12.7539 10.7949 12.3628C12.1549 12.0979 13.5276 11.8506 14.9052 11.7598C15.3266 11.732 15.7858 12.2493 16.2274 12.5167C15.8565 12.8801 15.5411 13.4629 15.1071 13.5689C13.8884 13.8692 12.6192 13.9499 11.3778 14.1644C10.1313 14.3789 9.2179 15.0198 8.84699 16.4504V16.453ZM47.1015 28.8066C46.5312 26.3641 46.0064 24.121 45.4866 21.8753C44.9635 19.6196 43.5807 18.2949 41.3384 17.9013C34.0438 16.6447 26.6886 16.5791 19.336 17.0636C15.9978 17.2831 12.6848 17.9366 9.36929 18.4513C8.94287 18.5169 8.29945 18.8702 8.21618 19.2058C7.42389 22.332 6.73001 25.4835 5.968 28.8041C6.60385 28.8041 7.09587 28.8041 7.59043 28.8041C15.4528 28.8041 23.3151 28.7965 31.18 28.8167C31.995 28.8167 33.249 28.471 33.2313 29.7881C33.2137 31.0851 31.9647 30.7318 31.1472 30.7344C22.9063 30.752 14.6655 30.7394 6.42218 30.7621C5.97304 30.7621 5.32205 30.8757 5.11263 31.1784C4.41117 32.1928 3.86868 33.3181 3.21265 34.4939C5.65764 35.5159 7.51473 37.3654 10.1868 37.5824C20.3074 38.4125 30.4281 38.2334 40.5613 37.8372C44.061 37.701 46.9173 36.2577 49.7862 34.3653C49.279 33.4569 48.7188 32.5713 48.2798 31.6276C47.9417 30.9009 47.4598 30.7116 46.6977 30.7243C44.0913 30.7672 41.4848 30.7394 38.8783 30.7394C38.1213 30.7394 37.3391 30.8555 36.615 30.699C36.1053 30.5905 35.3307 30.1641 35.2777 29.7907C35.1515 28.9126 35.9362 28.7839 36.6629 28.7965C37.0414 28.8041 37.4199 28.7965 37.7984 28.7965C40.8212 28.7965 43.8415 28.7965 47.104 28.7965L47.1015 28.8066ZM2.05449 45.0637C1.71638 47.3977 2.07972 48.2278 4.18408 48.8889C6.05379 49.4768 8.00423 49.9638 9.94963 50.1328C20.9837 51.0967 32.0328 51.1093 43.0643 50.1253C45.2494 49.931 47.432 49.3027 49.5212 48.5886C51.1689 48.026 51.5095 46.7744 51.0301 45.3513C48.5473 45.8863 46.1225 46.7341 43.6573 46.8754C36.4888 47.2867 29.3027 47.4153 22.1241 47.655C21.9576 47.6601 21.733 47.7156 21.6296 47.6323C21.2486 47.3245 20.908 46.9712 20.5547 46.6331C20.9004 46.3278 21.2057 45.9493 21.6044 45.7475C21.8693 45.6112 22.2629 45.7248 22.5985 45.7223C26.9283 45.697 31.2582 45.6844 35.5855 45.6365C36.7512 45.6238 37.9144 45.5027 38.7118 45.4548C39.6126 43.3454 40.4023 41.4908 41.0962 39.8709H11.9733C12.6798 41.5413 13.4645 43.3984 14.3299 45.4497C15.1147 45.5002 16.2173 45.4826 17.2745 45.6844C17.706 45.7677 18.0441 46.3303 18.4251 46.6735C18.0214 46.946 17.6101 47.4708 17.2165 47.4557C12.1019 47.2665 6.96214 47.1933 2.05449 45.0637ZM51.0301 36.3359C50.8636 36.298 50.697 36.2602 50.5305 36.2249C48.7794 37.214 46.9627 38.1047 45.2999 39.225C44.1367 40.0072 43.0416 40.9937 42.1837 42.0964C41.5479 42.9139 41.346 44.0695 40.9524 45.0738C41.0886 45.2252 41.2249 45.3766 41.3611 45.5305C43.9601 44.9401 46.5842 44.4354 49.1427 43.7037C49.8795 43.4943 50.8913 42.6818 50.9721 42.0434C51.2067 40.1687 51.0402 38.2434 51.0301 36.3384V36.3359ZM2.37241 36.0861C1.73656 38.251 1.83245 40.2444 2.07468 42.2327C2.11252 42.5481 2.45063 42.9139 2.74837 43.1006C5.55167 44.8467 8.7183 44.9375 12.054 45.2958C11.0548 39.6085 6.11687 38.632 2.37241 36.0861ZM6.36919 51.5761C6.36919 52.3154 6.39947 52.974 6.36162 53.6275C6.30358 54.7099 6.80823 55.1465 7.86546 55.1036C8.86717 55.0657 9.87141 55.091 10.8731 55.091C11.6326 55.091 12.0464 54.7226 12.0717 53.958C12.0893 53.4256 12.0742 52.8932 12.0742 52.328C10.1767 52.0782 8.40795 51.8436 6.36919 51.5736V51.5761ZM41.0836 52.3129C40.8035 54.937 40.9448 55.0985 43.415 55.0985C43.4983 55.0985 43.5816 55.0985 43.6648 55.0985C46.8819 55.0985 46.9728 54.9976 46.6296 51.7805C46.6246 51.7426 46.5892 51.7098 46.5312 51.6114C44.7523 51.8411 42.9457 52.0732 41.0861 52.3129H41.0836Z" fill="#558E60"/>
<path d="M50.2678 14.0887C50.2678 15.6405 50.3435 16.9879 50.2249 18.3176C50.1871 18.7516 49.6421 19.1402 49.3292 19.5489C49.0239 19.1301 48.4612 18.7163 48.4536 18.2924C48.3855 14.2981 48.4208 10.3039 48.4082 6.3096C48.4082 5.38863 48.8599 5.03033 49.7379 5.048C50.7876 5.06818 51.8423 5.02529 52.892 5.06314C55.4606 5.15145 57.3959 7.08675 57.411 9.54689C57.4262 11.9566 55.5893 13.8969 53.0661 14.0786C52.193 14.1417 51.3124 14.0887 50.2678 14.0887ZM50.3359 12.1635C52.1426 12.0575 54.0375 12.7236 55.1931 10.7908C55.7381 9.87743 55.6549 8.9287 55.014 8.08595C53.7625 6.43829 52.0114 7.11451 50.3359 6.97321V12.1635Z" fill="#558E60"/>
</svg>
