<svg width="65" height="65" viewBox="0 0 65 65" fill="none" xmlns="http://www.w3.org/2000/svg">
<path d="M42.6453 47.179C41.8177 47.2875 40.9926 47.4036 40.165 47.502C38.0329 47.7569 36.249 48.6829 34.7805 50.2498C34.2052 50.8629 33.645 51.5164 32.9688 51.9959C32.661 52.2154 32.0832 52.0539 31.6265 52.064C31.634 51.6123 31.4524 50.9916 31.6794 50.7368C34.0942 48.0268 36.6956 45.6045 40.6747 45.5995C41.631 45.5995 42.3754 45.1579 42.34 44.1184C42.3022 43.0006 41.4796 42.6675 40.4804 42.7155C36.8117 42.8946 33.6122 44.1966 30.9401 46.7375C30.269 47.3758 29.6356 48.0495 28.967 48.6904C27.2991 50.2851 25.331 50.0959 24.0644 48.1631C21.8868 44.8375 18.8262 43.0359 14.8774 42.7331C13.2095 42.6044 12.1271 43.591 12.3012 45.0343C12.4349 46.1395 13.3079 47.0024 14.6402 46.8182C16.9111 46.5028 17.9431 47.4768 18.6193 49.5307C19.0962 50.9765 20.1332 52.2305 20.8019 53.6259C20.9987 54.0346 20.7867 54.6402 20.764 55.1549C20.2669 54.996 19.5302 54.9934 19.3106 54.6553C18.3771 53.2171 17.4763 51.7309 16.8051 50.159C16.3408 49.074 15.8236 48.6425 14.6124 48.6904C12.4197 48.7737 10.7267 47.4414 10.439 45.4683C10.3179 44.6331 10.5374 43.7475 10.6156 42.7029C8.84939 42.7029 6.98221 42.7029 5.11503 42.7029C4.52712 42.7029 3.93669 42.7155 3.34878 42.6953C1.42105 42.6171 0.0307544 41.2722 0.000475774 39.4656C-0.0298028 37.6135 1.38824 36.1602 3.36392 36.1097C5.20587 36.0617 7.05034 36.0996 8.75099 36.0996C9.29348 33.7732 9.72495 31.5603 10.3457 29.4005C10.7014 28.1641 11.3499 27.0084 11.9 25.8301C12.1851 25.2195 12.6191 24.6896 13.371 25.1009C14.1103 25.5046 13.911 26.1278 13.5729 26.7334C12.0539 29.4534 11.2162 32.3779 10.9714 35.4789C10.9588 35.6378 10.9891 35.7968 11.0042 36.0264H53.8081C53.422 34.1567 53.2075 32.3299 52.665 30.604C47.8053 15.1216 27.9754 10.5697 16.795 22.338C16.5931 22.5499 16.4241 22.8855 16.1819 22.9511C15.7529 23.0672 15.2811 23.0192 14.8244 23.042C14.8244 22.5853 14.6427 21.9822 14.8647 21.6996C15.5107 20.8796 16.2752 20.1403 17.07 19.4565C20.3956 16.5951 24.2259 14.7936 28.5658 14.0896C28.7677 14.0568 28.967 13.9912 29.2471 13.9205C28.7323 12.1316 28.914 10.5394 30.6247 9.5049C31.8132 8.78579 33.0571 8.83877 34.185 9.63863C35.6586 10.6807 35.8629 12.1492 35.3104 13.9306C40.8766 14.791 45.6303 17.1755 49.4227 21.3085C53.1974 25.4213 55.211 30.3063 55.5743 35.976C55.7888 36.0189 56.0714 35.9936 56.2329 36.1223C56.5886 36.4049 56.8839 36.7657 57.2018 37.0937C56.8182 37.4066 56.4751 37.8028 56.0411 38.0046C55.7282 38.1484 55.2967 38.0374 54.9183 38.0374C38.0556 38.0374 21.193 38.0374 4.33031 38.0374C2.56911 38.0374 1.96354 38.3781 1.93831 39.3747C1.91055 40.4193 2.60191 40.8357 4.37069 40.8357C22.9996 40.8357 41.6285 40.8357 60.2574 40.8357C60.6359 40.8357 61.0219 40.8659 61.3903 40.8054C62.2003 40.6742 62.8109 40.1595 62.6015 39.3596C62.4677 38.8499 61.8193 38.4588 61.3575 38.0652C61.2314 37.9567 60.8882 38.1131 60.7519 38.0071C60.3936 37.7321 60.0959 37.3814 59.7755 37.0609C60.1413 36.7405 60.4744 36.198 60.8781 36.1425C62.7705 35.875 64.4888 37.3637 64.5898 39.2385C64.6907 41.1031 63.2979 42.6246 61.3525 42.6801C59.5534 42.7306 57.7493 42.6902 55.8569 42.6902C56.4574 45.2992 55.0646 46.3035 53.1369 47.6963C49.8971 50.0353 47.061 53.0682 46.1678 57.282C45.7767 59.129 45.4385 60.9936 45.1837 62.8633C45.0197 64.0644 44.5832 64.6119 43.261 64.5943C38.3004 64.5261 33.3372 64.5438 28.374 64.5867C27.2033 64.5968 26.6986 64.2663 26.4539 63.0198C26.2596 62.0382 25.5455 61.0946 24.8718 60.2922C24.2612 59.5655 23.3327 59.1138 22.6716 58.42C22.4192 58.155 22.5227 57.5545 22.4621 57.1054C22.9441 57.0902 23.5951 56.8606 23.8802 57.0902C25.6515 58.5209 27.8139 59.6336 28.3463 62.1796C28.3892 62.3839 28.9241 62.6085 29.2319 62.611C33.6476 62.6388 38.0632 62.6464 42.4788 62.5934C42.7917 62.5883 43.2888 62.1013 43.372 61.7582C43.6874 60.4537 43.859 59.1164 44.1038 57.7942C44.7068 54.5115 46.2258 51.7133 48.5598 49.3414C48.8701 49.026 49.1704 48.698 49.4757 48.3776C49.3773 48.2691 49.2789 48.1606 49.183 48.0521C47.9567 49.1371 46.738 50.2321 45.5042 51.307C44.9137 51.8218 44.3611 52.9118 43.4578 52.0387C42.5242 51.138 43.6319 50.5702 44.1593 50.0101C44.7825 49.3465 45.489 48.7611 46.1602 48.1404C46.0567 47.9991 45.9508 47.8578 45.8473 47.7165C44.8481 48.3397 43.7909 48.8873 42.8623 49.6038C42.0373 50.2422 41.3484 51.0572 40.6091 51.8041C40.112 52.3062 39.4838 52.6519 39.0195 51.9933C38.805 51.6905 38.9715 50.8427 39.2668 50.5122C40.3164 49.3313 41.4973 48.2665 42.6277 47.1563C44.4646 46.3489 46.2889 45.549 48.373 45.5541C49.2183 45.5541 49.7659 44.9611 49.7078 44.0452C49.6548 43.1924 49.0795 42.7029 48.2923 42.7407C46.9348 42.8088 45.5849 43.0384 44.1265 43.21C44.5529 45.0444 43.6975 46.1521 42.6504 47.1765L42.6453 47.179ZM21.8212 42.7457C23.1358 44.2647 24.4504 45.7559 25.7348 47.2749C26.2646 47.9032 26.8399 48.0546 27.4581 47.502C29.2092 45.9376 30.9301 44.3379 32.6711 42.7457H21.8212ZM51.5372 45.6424C52.4228 45.5591 53.5204 45.8543 53.9746 44.7063C54.1361 44.2975 54.0175 43.5759 53.7399 43.2327C53.147 42.5035 52.3042 42.6145 51.5397 42.8744V45.6424H51.5372ZM33.915 12.6539C33.915 12.4545 33.915 12.2552 33.9175 12.0559C33.37 11.6799 32.8098 10.9986 32.2775 11.0214C31.7955 11.0415 31.0688 11.7632 30.9452 12.2905C30.7534 13.1055 31.412 13.8095 32.2522 13.7035C32.8427 13.6278 33.365 13.0223 33.9175 12.6539H33.915Z" fill="#558E60"/>
<path d="M44.9062 9.4519C44.9062 4.46098 48.8929 0.272444 53.8889 0.0125524C58.8596 -0.247339 63.3232 3.56019 63.8077 8.48299C63.8405 8.81605 63.9288 9.19958 63.8077 9.47966C63.6638 9.81272 63.2803 10.3123 63.0684 10.282C62.7151 10.2316 62.2458 9.87328 62.1297 9.53769C61.9127 8.9195 61.9783 8.20796 61.8143 7.56201C60.9312 4.06484 57.6409 1.62993 54.058 1.78385C50.4296 1.93777 47.3714 4.66284 46.7482 8.29879C46.1578 11.743 48.1713 15.2957 51.4742 16.633C51.5524 16.6633 51.6331 16.686 51.7114 16.7162C52.375 16.9938 53.4095 17.0745 52.9654 18.1595C52.5743 19.1183 51.7416 18.6087 51.1083 18.3816C47.3689 17.0392 44.9062 13.4739 44.9062 9.45443V9.4519Z" fill="#558E60"/>
<path d="M61.7712 17.4758C61.0016 17.4758 60.2573 17.5061 59.5155 17.4682C58.5339 17.4203 58.2311 16.8475 58.6702 16.0224C59.4574 14.5438 60.2724 13.0753 61.1984 11.6825C61.4634 11.2838 62.2607 10.8599 62.6114 10.9911C63.0581 11.1576 63.4744 11.8364 63.5904 12.3637C63.757 13.1258 63.5854 13.9534 63.6661 14.7431C63.7065 15.1443 63.9765 15.5228 64.1456 15.9089C64.1607 15.9417 64.2137 15.9568 64.2414 15.9896C64.6527 16.4993 63.5476 19.4565 62.9067 19.4237C62.5559 19.406 62.1295 19.0477 61.9201 18.7273C61.7409 18.4497 61.8217 18.0057 61.7712 17.4783V17.4758Z" fill="#558E60"/>
<path d="M56.4321 17.6574C57.1461 17.6952 57.7164 17.6095 58.1882 17.7861C58.5289 17.9122 58.8846 18.3563 58.9578 18.7171C58.9956 18.9064 58.4582 19.4136 58.1554 19.4363C56.9872 19.5195 55.8063 19.5321 54.6406 19.4413C53.7499 19.3732 53.4875 18.6919 54.0199 17.8946C54.6936 16.8828 55.448 15.929 56.152 14.9374C56.3942 14.5967 56.7071 14.2435 56.7702 13.8625C56.8333 13.4865 56.6188 13.0651 56.5254 12.6639C56.1268 12.7825 55.5212 12.7825 55.3698 13.045C54.9787 13.7262 54.5144 14.2889 53.8685 13.6455C53.5884 13.3654 53.7171 12.3813 53.9871 11.8994C54.6204 10.769 56.1545 10.4587 57.3076 11.0592C58.4885 11.6748 59.0284 12.9869 58.5389 14.2511C58.2992 14.8667 57.9182 15.4319 57.5675 15.9996C57.2445 16.5219 56.8761 17.014 56.4321 17.6599V17.6574Z" fill="#558E60"/>
<path d="M53.4498 8.55865C53.4498 7.18349 53.4599 5.93955 53.4448 4.69813C53.4372 3.99415 53.6113 3.31036 54.4187 3.46427C54.777 3.5324 55.2312 4.24395 55.2615 4.68803C55.3675 6.18682 55.2867 7.69571 55.3069 9.20207C55.3195 10.0499 54.9259 10.4334 54.0958 10.4258C53.1748 10.4183 52.2437 10.504 51.3429 10.3728C50.9796 10.3199 50.6844 9.79754 50.3589 9.48971C50.6819 9.17936 50.9645 8.68985 51.3404 8.60154C51.9637 8.45267 52.6474 8.56117 53.4473 8.56117L53.4498 8.55865Z" fill="#558E60"/>
</svg>
