<svg width="65" height="64" viewBox="0 0 65 64" fill="none" xmlns="http://www.w3.org/2000/svg">
<path d="M23.4464 42.279C27.3826 42.279 31.1573 42.2538 34.932 42.2992C35.6814 42.3093 36.8926 41.9914 36.832 43.3009C36.7715 44.5802 35.6032 44.179 34.8412 44.1639C28.4802 44.0579 22.152 44.338 15.4982 45.5415C16.3309 45.8923 16.8456 46.1824 17.3982 46.3263C18.9803 46.7376 20.5749 47.1085 22.1747 47.4592C22.8383 47.603 23.5044 47.7897 23.3782 48.6022C23.242 49.4828 22.5557 49.4803 21.8088 49.3415C18.7406 48.7738 15.7632 48.0042 12.9876 46.4676C12.3493 46.1143 11.2264 46.4903 10.3736 46.7123C8.05475 47.3154 6.78052 48.958 6.72501 51.3878C6.67455 53.6158 6.68464 55.8464 6.72249 58.0769C6.75781 60.1156 7.82513 61.1401 9.89417 61.1476C15.7405 61.1628 21.5868 61.1527 27.433 61.1527C33.5317 61.1527 39.6303 61.1527 45.7289 61.1552C46.1477 61.1552 46.6171 61.0871 46.9678 61.2536C47.2832 61.4025 47.6591 61.834 47.6541 62.1342C47.649 62.4395 47.2655 62.8458 46.9451 63.0098C46.6423 63.1687 46.2058 63.0855 45.8298 63.0855C33.9707 63.0855 22.1091 63.0905 10.2499 63.0855C6.68212 63.0855 4.81494 61.2082 4.80989 57.6404C4.80989 55.536 4.7897 53.4342 4.81494 51.3298C4.85026 48.2313 6.72249 45.7207 9.72512 44.9234C11.9531 44.3304 14.2164 43.8258 16.4924 43.4649C17.5521 43.2959 17.7691 42.8922 17.7414 41.9308C17.6783 39.7861 17.7111 37.6414 17.7262 35.4941C17.7388 33.4957 18.8743 32.1761 20.5648 32.1635C22.2605 32.1483 23.4312 33.468 23.4464 35.4512C23.464 37.7953 23.4514 40.1368 23.4514 42.274L23.4464 42.279ZM21.4984 42.7433C21.4984 40.1166 21.5338 37.5985 21.4581 35.0803C21.448 34.7397 20.8853 34.4167 20.58 34.0861C20.2797 34.3788 19.7271 34.664 19.7196 34.9617C19.6514 37.5959 19.6792 40.2302 19.6792 42.9578C20.3655 42.877 20.8929 42.814 21.4984 42.7408V42.7433Z" fill="#558E60"/>
<path d="M46.4127 43.1343C48.8249 43.6541 51.1664 44.1058 53.4802 44.671C57.583 45.6727 59.3215 47.9335 59.324 52.1271C59.324 54.1456 59.3416 56.1642 59.3189 58.1803C59.2861 61.0214 57.3231 63.0097 54.487 63.0829C53.2683 63.1131 52.0395 63.1737 50.8359 63.04C50.4145 62.9946 50.0512 62.4092 49.6626 62.0711C50.0461 61.7657 50.4044 61.2409 50.8157 61.198C51.9789 61.0769 53.1648 61.1677 54.3406 61.145C56.2608 61.1097 57.3584 60.1105 57.4013 58.2257C57.4543 55.8715 57.482 53.5148 57.3887 51.1632C57.2751 48.312 54.328 45.8443 51.5929 46.2C51.4364 46.2202 51.2775 46.3035 51.1387 46.3867C46.8139 48.9655 41.9693 49.5887 37.102 49.9117C33.7159 50.1362 30.302 49.9621 26.8981 49.9495C26.4843 49.9495 26.0049 49.9344 25.6794 49.73C25.3893 49.5483 25.0814 49.0563 25.1344 48.7661C25.1899 48.4634 25.6365 48.095 25.9696 48.0167C26.4414 47.9082 26.9663 48.042 27.4709 48.0723C33.837 48.4533 40.1526 48.2262 46.3319 46.4448C46.8946 46.2833 47.4447 46.0663 47.9922 45.8619C48.0982 45.8215 48.1789 45.713 48.5297 45.4204C45.6179 45.0747 42.9483 44.7567 40.2762 44.4439C40.0264 44.4136 39.7085 44.507 39.5344 44.3858C39.1357 44.1058 38.8077 43.7298 38.4494 43.3917C38.8355 43.0889 39.1912 42.7306 39.6202 42.5086C39.8422 42.395 40.1904 42.5237 40.6799 42.559C40.6799 41.2722 40.6799 40.0333 40.6799 38.7944C40.6799 37.5757 40.6497 36.3544 40.69 35.1357C40.7481 33.4149 41.9315 32.1911 43.4959 32.1634C45.1082 32.1331 46.3572 33.3846 46.3925 35.1685C46.4354 37.3536 46.4051 39.5413 46.4051 41.7264C46.4051 42.1856 46.4051 42.6423 46.4051 43.1293L46.4127 43.1343ZM44.4597 42.9451C44.4597 40.2402 44.4925 37.6438 44.4168 35.0499C44.4067 34.7219 43.8289 34.409 43.5135 34.0886C43.2233 34.3889 42.6884 34.6841 42.6783 34.9919C42.6102 37.5454 42.6405 40.1014 42.6405 42.7483C43.2688 42.8164 43.7911 42.8719 44.4597 42.9426V42.9451Z" fill="#558E60"/>
<path d="M32.2828 0C44.1596 0.21952 54.6511 4.3475 63.4521 12.6716C63.5429 12.7574 63.6363 12.8457 63.7246 12.934C64.2192 13.4311 64.7415 13.966 64.04 14.6347C63.4168 15.2301 62.9046 14.7911 62.4176 14.3293C61.7161 13.6632 61.0147 12.9971 60.2804 12.3688C43.2664 -2.19267 18.0594 -1.44833 1.95376 14.0896C1.77209 14.2637 1.6106 14.5539 1.4037 14.5892C0.967181 14.6675 0.505433 14.617 0.053777 14.617C0.0638699 14.1679 -0.110232 13.5522 0.119381 13.2999C0.962135 12.3688 1.90329 11.516 2.86969 10.7085C11.3225 3.64352 21.0974 0.166532 32.2828 0Z" fill="#558E60"/>
<path d="M32.0886 15.1544C41.0158 15.3234 48.7343 18.3311 55.2442 24.3692C55.5217 24.6265 55.9027 24.8662 56.0062 25.1867C56.1273 25.5576 56.145 26.1682 55.9254 26.3852C55.7034 26.6022 55.1155 26.5366 54.7194 26.4508C54.4721 26.3978 54.2803 26.0799 54.0658 25.878C41.6087 14.1123 22.4954 14.13 10.0206 25.9209C9.83639 26.095 9.66986 26.3852 9.46548 26.413C9.02644 26.4735 8.47385 26.5417 8.15593 26.3272C7.96416 26.1985 8.04238 25.5147 8.16098 25.1337C8.25181 24.8486 8.59749 24.6391 8.84224 24.4095C15.4127 18.2958 23.212 15.2805 32.0861 15.1519L32.0886 15.1544Z" fill="#558E60"/>
<path d="M32.2576 22.7366C39.3806 22.8526 45.8224 25.3052 51.2473 30.339C51.4946 30.5686 51.8478 30.7755 51.9311 31.0607C52.0421 31.4417 52.0951 32.0422 51.8831 32.2592C51.6636 32.4812 50.9975 32.5166 50.6922 32.3399C50.1219 32.0119 49.6804 31.4644 49.1707 31.0279C38.987 22.2748 24.0294 22.5675 14.1888 31.7091C14.0046 31.8807 13.8457 32.1684 13.6362 32.2087C13.1669 32.2996 12.6749 32.2693 12.1904 32.2869C12.2434 31.8075 12.1147 31.096 12.3797 30.8891C14.5219 29.2086 16.6161 27.4171 18.9577 26.0546C22.9545 23.7282 27.3979 22.8123 32.2576 22.7391V22.7366Z" fill="#558E60"/>
<path d="M31.2634 7.56445C42.5422 7.77388 51.6359 11.324 59.2863 18.4748C59.531 18.7045 59.8742 18.9063 59.9776 19.194C60.1164 19.5724 60.235 20.2588 60.0584 20.3849C59.7404 20.6095 59.1778 20.6095 58.7513 20.5237C58.4713 20.4682 58.2517 20.0998 58.0045 19.8702C49.3675 11.9271 39.2166 8.56617 27.5467 9.80255C27.1279 9.84796 26.6737 10.0145 26.3028 9.90347C25.8536 9.76974 25.4752 9.40388 25.0664 9.13642C25.402 8.78064 25.6997 8.17002 26.0807 8.11451C28.0741 7.82687 30.0851 7.68052 31.2634 7.56445Z" fill="#558E60"/>
<path d="M14.5847 58.0415C13.4947 58.0415 12.4046 58.0213 11.3171 58.049C10.3406 58.0743 9.82086 57.7109 9.84609 56.6587C9.88142 55.2356 9.87385 53.8075 9.84609 52.3844C9.83095 51.4836 10.2473 51.0622 11.1254 51.0597C13.4291 51.0572 15.7353 51.0597 18.039 51.0597C18.9297 51.0597 19.3309 51.5063 19.3233 52.3844C19.3132 53.81 19.3056 55.2356 19.3258 56.6587C19.341 57.6857 18.8414 58.0843 17.8497 58.0515C16.7622 58.0162 15.6722 58.044 14.5822 58.044L14.5847 58.0415ZM17.3728 53.0884H11.8621V56.0229H17.3728V53.0884Z" fill="#558E60"/>
<path d="M23.4992 10.002C23.088 10.2568 22.6413 10.6833 22.1165 10.8296C17.4536 12.1341 13.1768 14.2183 9.33643 17.1629C8.0723 18.1318 6.89901 19.2218 5.70553 20.2791C5.18322 20.7433 4.5726 21.1117 4.1159 20.438C3.91152 20.1352 4.0831 19.2773 4.38588 18.9771C9.31372 14.077 15.1701 10.7665 21.8718 8.9372C22.6464 8.72525 23.1965 8.8615 23.4992 10.002Z" fill="#558E60"/>
<path d="M36.5847 55.9522C36.1355 55.3139 35.6183 54.8925 35.6839 54.5973C35.7722 54.1961 36.3021 53.8933 36.6427 53.5476C36.9657 53.911 37.4804 54.2415 37.546 54.6452C37.5965 54.9429 37.0616 55.3391 36.5821 55.9522H36.5847Z" fill="#558E60"/>
<path d="M41.6084 55.9522C41.1694 55.3063 40.6622 54.8748 40.7303 54.5796C40.8237 54.1809 41.3611 53.8857 41.7093 53.5476C42.0247 53.916 42.5319 54.2566 42.5924 54.6629C42.6353 54.9631 42.0954 55.3492 41.6084 55.9548V55.9522Z" fill="#558E60"/>
<path d="M46.6097 53.1135C47.1295 53.7393 47.6745 54.1152 47.6366 54.4205C47.5887 54.8217 47.137 55.3466 46.7485 55.4702C46.5138 55.5434 45.8149 54.9807 45.7871 54.6603C45.7518 54.2692 46.1984 53.8352 46.6097 53.1135Z" fill="#558E60"/>
<path d="M51.7846 56.0001C51.3026 55.3062 50.8182 54.9101 50.8283 54.5265C50.8358 54.196 51.401 53.8755 51.7215 53.55C52.0647 53.8907 52.5996 54.1884 52.6904 54.5871C52.7585 54.8823 52.2539 55.3113 51.7846 56.0026V56.0001Z" fill="#558E60"/>
</svg>
