<?xml version="1.0" encoding="UTF-8"?><svg id="Camada_2" xmlns="http://www.w3.org/2000/svg" viewBox="0 0 1204.9 230.46"><defs><style>.cls-1{fill:#016956;}</style></defs><g id="Camada_1-2"><g><path class="cls-1" d="M0,114.41C-.38,68.3,34.86,24.63,82.63,15.65c19.1-3.59,37.69-2.21,55.93,4.5,1.25,.46,2.97,.45,4.22-.01,59.3-21.99,124.9,14.26,135.97,76.01,7.37,41.12-6.4,74.92-39.46,100.51-15.04,11.65-32.39,17.72-51.39,19.57-15.35,1.49-30.05-.77-44.53-5.68-1.7-.58-3.97-.55-5.67,.06C78.4,231.75,15.23,196.65,2.36,135.14,.94,128.37,.76,121.33,0,114.41Zm157.51,87.24c31.51,9.13,75.64-3,98.35-40.91,21.94-36.62,14.5-83.91-17.71-112.34-16.34-14.42-35.59-21.77-57.32-22.51-7.87-.27-15.66,.65-24.31,3.04,10.79,7.01,19.26,14.81,26.76,24.37-3.29,2.52-6.37,4.88-9.56,7.32-1.11-1.24-1.89-2.04-2.6-2.89-7.64-9.11-16.85-16.25-27.31-21.86-2.24-1.2-4.09-1.25-6.29-.1-9.49,4.99-17.92,11.34-25.13,19.28-.73,.8-1,2.02-1.51,3.11-4.05-3.4-6.89-5.79-9.93-8.35,6.48-8.42,14.66-14.44,23.22-20.51-22.78-8-63.55-2.68-90.03,27.88-26.73,30.86-28.78,77.5-3.96,111.04,24.98,33.75,66.86,41.65,93.98,33.14-1.17-.94-2.04-1.72-2.99-2.4-29-20.76-44.05-48.82-44.31-84.6-.04-5.12-.04-5.14,5.16-5.14,29.74,0,59.49-.02,89.23,0,8.4,0,6.93-.8,7.31,7.11,.19,3.83-1.03,4.86-4.82,4.84-25.87-.16-51.74-.06-77.61-.09-8.11-.01-7.22,.23-6.14,6.81,4.97,30.1,20.97,52.3,47.87,66.6,1.54,.82,4.3,.77,5.82-.08,5.11-2.85,10.14-5.93,14.76-9.5,4.61-3.56,8.68-7.81,13.26-12.02,2.92,2.35,5.87,4.72,9.65,7.77-8.2,7.22-15.91,14.01-23.83,20.98Z"/><g><path class="cls-1" d="M604.86,68.85c-9.37,0-18.75,.07-28.12-.05-2.58-.03-3.61,.8-3.56,3.4,.24,13.1,.2,26.2,.64,39.3,.27,7.91,5.08,11.52,14.73,11.85,1.99,.07,4.01-.36,4,2.87-.01,2.69-.95,3.39-3.51,3.36-10-.12-20-.05-30-.05-7.87,0-15.75-.04-23.62,.03-2.07,.02-3.3-.33-3.26-2.82,.03-2.23,.43-3.32,3.06-3.44,10.63-.52,14.25-4.31,14.27-14.94,.06-28.59,.06-57.18,0-85.77-.02-10.18-2.44-13.09-12.31-14.83-2.24-.4-3.67-.75-3.47-3.55,.22-3.14,2.4-2.35,4.08-2.36,16.37-.05,32.75-.04,49.12-.01,1.76,0,3.84-.58,4.03,2.47,.17,2.92-1.41,3.07-3.66,3.3-10.4,1.08-13.12,3.76-13.57,14.44-.47,11.21-.34,22.45-.56,33.68-.05,2.75,1.08,3.74,3.78,3.74,18.62-.06,37.24-.04,55.87-.03,2.1,0,3.67-.4,3.62-3.07-.26-12.59-.27-25.19-.75-37.78-.24-6.17-3.81-9.49-9.86-10.36-1.6-.23-3.2-.64-4.81-.66-2.38-.04-2.88-1.57-2.33-3.22,.34-1.02,1.77-2.4,2.72-2.41,17.12-.15,34.24-.09,51.37-.13,1.94,0,3.02,.48,3,2.73-.02,1.99-.57,2.75-2.69,3.05-9.85,1.4-12.88,4.4-12.95,14.36-.22,29.09-.22,58.18,0,87.26,.07,9.99,4.01,13.62,14.02,14.08,2.41,.11,3.27,.81,3.29,3.26,.02,2.67-1.27,3.02-3.49,3.01-17.87-.06-35.74-.06-53.62,0-2.31,0-3.38-.5-3.38-3.1,0-2.57,1.04-3.17,3.37-3.16,2.1,0,4.22-.34,6.29-.76,5.71-1.17,8.84-4.39,9.1-10.26,.46-10.34,.52-20.69,.72-31.04,.06-3-.11-6,.03-8.99,.12-2.58-.85-3.49-3.48-3.45-9.37,.12-18.75,.05-28.12,.05Z"/><path class="cls-1" d="M963.22,131.05c-19.53-.73-40.01-9.02-54.56-28.7-19.39-26.24-14.68-62.55,10.48-84.74,27.55-24.29,73.16-23.31,99.6,2.15,33.91,32.65,23.19,86.79-20.84,105.26-9.58,4.02-19.66,6.03-34.68,6.03Zm47.11-64.73c.36-10.62-1.35-21.64-6.1-32.03-6.87-15.03-18.41-23.84-35.15-24.37-16.17-.5-28.78,6.54-35.95,21.09-10.83,21.97-11.43,44.74-1.61,67.18,6.19,14.14,17.85,21.96,33.43,22.81,16.65,.91,29.64-5.68,37.95-20.42,5.85-10.38,7.7-21.74,7.43-34.26Z"/><path class="cls-1" d="M1146.04,129.53c-17.5,0-35-.02-52.5,.03-2.22,0-3.8-.04-3.8-3.06,0-2.93,1.44-3.09,3.72-3.19,9.59-.43,13.6-4.44,13.63-14.08,.1-29.22,.09-58.43,0-87.65-.02-9.08-2.72-11.98-11.79-13.8-1.33-.27-3.2-.7-3.71-1.65-1.3-2.4,.12-4.27,2.98-4.28,8.87-.05,17.75-.02,26.62-.02,23.62,0,47.25,.08,70.87-.08,3.66-.02,4.62,1.09,4.61,4.65-.04,7.98,.43,15.96,.67,23.94,.05,1.63,.3,3.38-2.28,3.32-2.03-.04-4.07,.3-4.36-2.66-.14-1.47-.66-2.91-1.05-4.35-2.61-9.72-9.24-15.26-18.95-16-11.68-.89-23.45-.7-35.18-.91-2.66-.05-4.2,1.38-4.34,4.11-.14,2.86-.35,5.72-.36,8.59-.04,10.86,.07,21.73-.07,32.59-.04,3.12,1.02,4.23,4.12,3.98,5.22-.41,10.48-.37,15.68-.86,9.09-.86,13.12-4.88,15.19-13.84,.46-2-.98-6.04,3.55-5.49,.93,.11,2.44,1.43,2.44,2.21,.15,14.48,.14,28.97,.02,43.45,0,.79-1.35,2.25-2,2.21-1.17-.07-2.55-.82-3.34-1.72-.65-.74-.57-2.11-.82-3.21-2.23-9.69-7.31-13.9-17.3-14.38-4.74-.23-9.47-.43-14.21-.72-2.18-.13-3.29,.7-3.27,2.96,.13,11.6-.22,23.23,.48,34.8,.59,9.85,5,14.12,14.89,15.7,9.79,1.57,19.62,1.39,29.44-.32,10.23-1.78,16.81-7.66,20.28-17.24,.97-2.69,2.03-5.41,2.51-8.21,.53-3.11,2.65-2.47,4.53-2.41,2.7,.09,1.84,2.2,1.75,3.64-.66,9.82-1.6,19.63-2.01,29.46-.15,3.69-1.41,4.57-4.9,4.54-17.25-.16-34.5-.07-51.75-.07Z"/><path class="cls-1" d="M466.99,11.85c.86-2.52,1.88-4.79,2.37-7.16,.77-3.73,3.53-2.85,5.89-2.81,2.89,.04,2.12,2.33,2.01,3.88-.74,10.81-1.5,21.63-2.48,32.42-.16,1.74,.58,4.42-2.87,4.73-3.27,.29-3.87-1.62-4.63-4.03-3.72-11.88-10.58-21.34-22.42-26.04-18.9-7.5-40.96-1.14-50.44,20.64-5.64,12.96-6.93,26.64-5.9,40.64,.62,8.38,2.07,16.53,5.5,24.27,8.14,18.33,24.36,23.86,41.31,22.37,20.34-1.78,32.21-13.73,37.92-32.53,1.04-3.43,3.15-3.25,5.67-3.09,3.17,.21,2.02,2.69,2.03,4.27,.09,12.11,.06,24.22,.04,36.33,0,1.8,.53,3.9-2.56,3.83-2.6-.06-4.96,.23-5.22-3.52-.21-3.06-1.08-6.08-1.78-9.73-1.5,.94-2.63,1.58-3.69,2.32-15.04,10.51-31.82,13.64-49.82,11.96-10.73-1-20.86-3.75-30.07-9.39-16.25-9.97-24.72-24.86-27.1-43.48-2.15-16.85,.32-32.87,9.28-47.48,10.15-16.55,25.35-25.71,44.27-29.03,17.66-3.1,34.25-.29,49.6,9.18,.83,.51,1.76,.85,3.06,1.47Z"/><path class="cls-1" d="M785.65,129.53c-17.74,0-35.48,0-53.22,0-2.02,0-3.95,.37-4.01-2.85-.06-3.14,1.52-3.29,3.94-3.38,9.07-.36,12.37-3.39,13.41-12.17,.33-2.84,.58-5.71,.58-8.56,.05-23.71,.06-47.42,0-71.13-.01-4.35-.29-8.71-.66-13.05-.54-6.39-3.32-9.18-9.8-10.24-.86-.14-1.71-.51-2.56-.51-2.47,.01-2.73-1.44-2.7-3.44,.03-2.49,1.67-2.38,3.33-2.38,16.61,0,33.23,0,49.84,0,.12,0,.25,.01,.37,0,1.87-.11,3.06,.33,3.09,2.63,.04,2.27-.77,3.11-3.02,3.12-1.73,0-3.47,.38-5.17,.75-4.61,1.01-7.54,3.82-8.32,8.5-.47,2.81-.79,5.69-.79,8.54-.06,24.58-.04,49.17-.03,73.75,0,1.62-.01,3.26,.23,4.85,1.66,10.95,6.53,15.72,17.85,16.32,8.81,.47,17.7,.55,26.49-.08,10.58-.76,18.23-6.28,21.98-16.5,.98-2.68,2.08-5.39,2.54-8.18,.53-3.27,2.6-3.28,4.9-2.91,2.86,.46,1.47,2.6,1.37,4.15-.61,9.32-1.41,18.64-1.79,27.97-.15,3.63-1.15,4.94-5,4.9-17.61-.2-35.23-.09-52.84-.09Z"/><g><path class="cls-1" d="M813.46,205.97c-5.99,0-11.47-.09-16.94,.1-.78,.03-2.14,1.41-2.16,2.2-.14,4.85-.04,9.72,.12,14.58,.08,2.41,1.17,3.94,3.93,4.01,.76,.02,1.49,1.08,2.23,1.67-.74,.46-1.48,1.31-2.22,1.33-6.12,.11-12.24,.11-18.36,0-.72-.01-1.42-.93-2.13-1.43,.66-.55,1.32-1.56,1.98-1.57,3.47-.02,4.11-2.12,4.1-4.95-.02-10.98-.04-21.96,.03-32.94,.02-3.14-.65-5.45-4.42-5.53-.54-.01-1.06-.74-1.59-1.14,.61-.46,1.22-1.32,1.84-1.33,6.24-.1,12.49-.11,18.74-.02,.66,0,1.32,.78,1.97,1.2-.6,.45-1.2,1.28-1.81,1.29-3.35,.03-4.29,2.18-4.4,4.91-.15,3.74-.08,7.48-.13,11.22-.03,2.22,1.07,3.1,3.25,3.06,4.37-.07,8.74-.06,13.12-.01,2.02,.02,3.04-.86,3.02-2.88-.03-3.87,0-7.73-.14-11.6-.1-2.61-1.07-4.59-4.2-4.69-.68-.02-1.33-.74-1.99-1.13,.73-.48,1.45-1.36,2.18-1.37,6.12-.11,12.24-.1,18.36,0,.67,.01,1.34,.76,2,1.17-.59,.46-1.17,1.29-1.78,1.32-3.56,.19-4.2,2.39-4.18,5.37,.05,10.98,.06,21.96,0,32.94-.02,3.04,.65,5.17,4.3,5.1,.58-.01,1.17,.91,1.76,1.4-.65,.55-1.3,1.57-1.96,1.58-6.24,.12-12.49,.12-18.74,0-.69-.01-1.35-.99-2.03-1.52,.69-.51,1.39-1.48,2.07-1.47,2.96,.04,4.11-1.65,4.17-4.18,.12-5.44,.04-10.89,.04-16.7Z"/><path class="cls-1" d="M519.76,206.6c3.73,6.07,7.21,11.94,10.93,17.66,.74,1.14,2.47,1.59,3.58,2.54,.54,.46,.96,1.36,.94,2.05,0,.36-1.07,1.03-1.63,1.01-7.12-.29-11.79-.55-15.13-7.26-1.83-3.68-4.04-7.18-5.79-10.9-1.46-3.1-3.47-4.35-7.21-2.97,0,4.9-.23,10,.18,15.04,.09,1.1,2.5,2.01,3.83,3.02,.69,.52,1.38,1.05,2.07,1.58-.7,.52-1.39,1.47-2.1,1.48-6.25,.12-12.49,.12-18.74,0-.67-.01-1.31-1.02-1.97-1.57,.71-.5,1.43-1.44,2.12-1.42,3.24,.1,4.27-1.95,4.29-4.51,.11-11.36,.11-22.71,.01-34.07-.02-2.72-1.18-4.83-4.5-4.84-.62,0-1.23-.82-1.85-1.25,.52-.42,1.05-1.2,1.57-1.2,9.36,.08,18.76-.26,28.05,.6,6.76,.62,10.25,4.42,10.88,9.61,.73,6.06-1.6,10.7-6.97,13.75-.64,.36-1.25,.8-2.57,1.66Zm-14.36-22.47c0,6.58-.04,12.67,.06,18.76,.01,.66,.67,1.64,1.27,1.9,2.64,1.15,7.77-.27,9.68-2.5,2.67-3.12,3.14-11.2,.64-14.93-2.77-4.14-7.01-3.37-11.65-3.22Z"/><path class="cls-1" d="M874.7,204.76c.93-4.09,1.39-8.36,2.89-12.23,2.98-7.73,9.15-11.63,17.3-12.23,3.21-.24,6.57-.32,9.69,.34,9.72,2.04,14.92,8.68,16.5,18.1,1.01,6.04,.87,12.18-1.4,18.07-3.54,9.19-12.43,14.5-22.71,13.55-14.79-1.37-21.65-9.45-22.27-25.59Zm36.62,.4c-.79-4.65-1.2-9.39-2.48-13.89-1.45-5.1-5.45-7.72-10.29-7.73-4.87-.01-8.79,2.55-10.44,7.6-3.02,9.26-2.97,18.68-.08,27.95,1.65,5.27,5.56,7.74,10.72,7.66,4.89-.07,8.71-2.67,10.16-7.86,1.22-4.39,1.61-9.01,2.41-13.72Z"/><path class="cls-1" d="M678.68,192.48c0,10.33-.12,20.66,.17,30.98,.03,1.14,2.33,2.23,3.61,3.31,.72,.61,1.5,1.16,2.25,1.74-.74,.47-1.46,1.32-2.21,1.35-4.12,.13-8.24,.13-12.36,0-.75-.02-1.47-.87-2.21-1.34,.75-.58,1.47-1.62,2.25-1.66,3-.16,3.8-1.9,3.79-4.48,0-11.47-.01-22.95,0-34.42,0-2.66-1.05-4.21-3.87-4.5-.74-.08-1.39-.91-2.09-1.4,.81-.39,1.62-1.08,2.44-1.12,3.37-.13,6.77-.32,10.1,.08,1.44,.17,3.1,1.45,4.01,2.7,6.74,9.28,13.32,18.69,19.95,28.05,.71,1,1.49,1.94,2.82,3.66,.21-1.79,.42-2.79,.42-3.78,.03-7.48-.04-14.97,.03-22.45,.03-3.23-.53-5.76-4.56-5.77-.49,0-.98-.81-1.46-1.24,.53-.42,1.04-1.18,1.58-1.19,4.49-.09,8.99-.09,13.48,0,.52,.01,1.02,.8,1.53,1.23-.51,.42-1.01,1.19-1.52,1.2-4.05,.07-4.5,2.68-4.48,5.87,.05,12.22,.06,24.45-.04,36.67,0,1.3-.9,3.74-1.19,3.71-1.94-.2-4.49-.33-5.59-1.58-3.11-3.54-5.62-7.61-8.36-11.48-4.98-7.02-9.94-14.05-14.93-21.06-.84-1.17-1.75-2.29-2.63-3.44-.32,.12-.63,.24-.95,.36Z"/><path class="cls-1" d="M433.61,193.03c-.22-.49-.56-1.01-.67-1.58-.85-4.38-3.25-7.35-7.83-7.81-5.21-.53-10.09,.95-12.45,5.79-4.95,10.17-4.93,20.74-.1,30.95,2.38,5.04,10.44,7.77,15.64,5.92,.86-.31,1.81-1.63,1.91-2.57,.27-2.46-.02-4.98,.13-7.47,.17-3.08-.6-5.37-3.89-6.32-.6-.17-.96-1.15-1.43-1.76,.62-.31,1.23-.88,1.85-.89,5.62-.07,11.23-.07,16.85,.01,.56,0,1.12,.7,1.68,1.07-.42,.53-.73,1.36-1.26,1.53-3.02,.92-3.43,3.37-3.59,5.91-.13,1.99-.31,4.03-.02,5.98,.66,4.41-1.49,6.24-5.48,7.17-6.66,1.55-13.3,2.07-19.96,.34-9.46-2.46-15.66-9.79-16.22-19.58-.23-4.06-.12-8.27,.71-12.23,2.03-9.71,9.8-16.58,19.72-17.04,5.51-.26,11.13,.56,16.6,1.48,2.64,.45,5.08,2.26,5.13,5.62,.05,3.15-1.95,4.67-7.33,5.49Z"/><path class="cls-1" d="M614.99,229.91c-2.87,0-5.76,.1-8.62-.06-.74-.04-1.42-.93-2.13-1.43,.66-.55,1.27-1.5,1.98-1.58,3.74-.41,4.08-2.52,3.24-5.57-2.14-7.81-2.1-7.82-10.18-7.82-1.37,0-2.76-.08-4.12,.02-2.06,.15-5.33-.27-5.94,.79-1.62,2.81-2.38,6.24-2.84,9.52-.12,.82,2.13,2.03,3.36,2.98,.77,.6,1.65,1.05,2.48,1.56-.81,.54-1.6,1.5-2.42,1.53-4.24,.16-8.5,.12-12.74,.02-.69-.02-1.36-.73-2.04-1.12,.39-.65,.68-1.77,1.19-1.88,3.58-.77,4.45-3.73,5.49-6.52,4.44-11.91,9.04-23.76,13.13-35.79,1.28-3.77,3.57-3.63,6.53-3.77,2.98-.13,4.41,.85,5.4,3.75,4.08,12.03,8.42,23.98,12.71,35.94,1,2.8,1.84,5.8,5.54,6.39,.46,.07,1.21,1.24,1.06,1.55-.29,.62-1.08,1.4-1.7,1.43-3.12,.14-6.25,.07-9.37,.07Zm-9.57-20.08c-2.32-7.58-4.5-14.7-6.69-21.82-.3-.02-.6-.04-.91-.05-2.44,7.13-4.88,14.27-7.48,21.87h15.07Z"/><path class="cls-1" d="M1067.65,184.22c0,5.68-.13,10.89,.14,16.08,.04,.82,1.86,2.13,2.93,2.21,3.6,.29,7.24,.03,10.85,.2,.86,.04,1.68,.96,2.51,1.47-.87,.59-1.73,1.65-2.62,1.68-4.45,.17-8.91,.08-13.81,.08,0,6.43-.1,12.38,.12,18.33,.03,.78,1.66,2.08,2.62,2.15,3.6,.25,7.24,.17,10.85,.07,3.67-.1,5.29-2.42,5.66-5.77,.32-2.92,1.81-3.5,4.51-2.49-.16,3.25-.18,6.48-.6,9.65-.1,.77-1.54,1.94-2.37,1.95-11.74,.13-23.47,.11-35.21,.03-.75,0-1.5-.85-2.25-1.3,.73-.59,1.47-1.71,2.19-1.69,3.27,.05,4.2-2.05,4.22-4.58,.1-11.35,.1-22.7-.02-34.05-.03-2.68-1.13-4.87-4.5-4.81-.6,.01-1.21-.83-1.82-1.28,.66-.42,1.31-1.2,1.97-1.2,11.11-.07,22.23-.05,33.34-.05,.25,0,.64-.05,.72,.08,.58,.94,1.58,1.92,1.56,2.87-.07,2.85-.56,5.69-.88,8.53-1.02-.72-2.72-1.26-2.94-2.18-1.38-5.63-1.67-5.99-7.48-5.99-3.08,0-6.17,0-9.69,0Z"/><path class="cls-1" d="M981.94,184.22c-2.19,0-3.79-.01-5.39,0-4.93,.04-6.22,1.27-7.16,6.21-.2,1.02-1.3,1.88-1.98,2.81-.66-1.07-1.88-2.14-1.88-3.2,.03-10.93-1.3-9.03,9.01-9.15,9.12-.1,18.24-.04,27.37-.02,7.7,.02,6.35-.57,6.61,6.66,.04,1.12,.27,2.31-.01,3.35-.24,.87-1.1,1.56-1.68,2.34-.67-.59-1.49-1.08-1.96-1.8-.37-.58-.34-1.43-.43-2.17-.39-3.45-2.35-4.95-5.77-5.05-6.62-.18-6.62-.24-6.63,6.26,0,9.86-.04,19.72,.03,29.58,.02,3.43-.03,7.08,5.13,6.83,.44-.02,1.39,1.05,1.3,1.34-.22,.65-.94,1.6-1.47,1.61-6.5,.11-12.99,.11-19.49,0-.6,0-1.18-.93-1.77-1.43,.55-.53,1.12-1.54,1.66-1.53,4.16,.08,4.54-2.59,4.54-5.75-.03-12.09-.01-24.17-.01-36.9Z"/><path class="cls-1" d="M1154.81,229.92c-5.62,0-11.24,.07-16.86-.06-1-.02-1.98-.87-2.96-1.34,.87-.59,1.81-1.1,2.59-1.78,1.27-1.09,3.2-2.13,3.49-3.49,.61-2.88,.42-5.94,.43-8.93,.04-8.11,.06-16.22-.02-24.32-.03-3.36-.27-6.73-5.07-6.61-.44,.01-.9-.87-1.35-1.34,.44-.37,.87-1.05,1.32-1.06,6.62-.07,13.23-.08,19.85,0,.48,0,.95,.87,1.43,1.33-.55,.38-1.09,1.08-1.64,1.09-3.78,.1-4.41,2.47-4.39,5.57,.05,11.23,.11,22.45-.05,33.68-.04,2.98,.97,4.05,3.85,3.9,2.61-.14,5.24,.02,7.86-.04,4.96-.12,6.56-1.41,7.91-6.25,.37-1.31,.54-2.72,1.14-3.91,.28-.55,1.39-.92,2.12-.9,.37,0,1.03,1.06,1.02,1.63-.1,3.61-.2,7.24-.68,10.81-.11,.78-1.78,1.89-2.76,1.92-5.74,.18-11.48,.09-17.23,.09Z"/></g></g></g></g></svg>