<svg width="43" height="43" viewBox="0 0 43 43" fill="none" xmlns="http://www.w3.org/2000/svg">
<path d="M28.493 13H12.9437C11.8746 13 11.0097 13.9718 11.0097 15.1596L11 28.1174C11 29.3052 11.8746 30.277 12.9437 30.277H28.493C29.562 30.277 30.4366 29.3052 30.4366 28.1174V15.1596C30.4366 13.9718 29.562 13 28.493 13ZM28.1042 17.5892L21.2334 22.362C20.9224 22.5779 20.5142 22.5779 20.2032 22.362L13.3324 17.5892C13.2349 17.5284 13.1496 17.4463 13.0816 17.3478C13.0135 17.2493 12.9641 17.1365 12.9364 17.0162C12.9088 16.8959 12.9033 16.7706 12.9205 16.6479C12.9376 16.5252 12.977 16.4077 13.0363 16.3024C13.0955 16.1971 13.1733 16.1062 13.2651 16.0353C13.3568 15.9644 13.4606 15.915 13.57 15.8899C13.6795 15.8648 13.7923 15.8647 13.9018 15.8895C14.0113 15.9143 14.1152 15.9636 14.207 16.0343L20.7183 20.5587L27.2296 16.0343C27.3215 15.9636 27.4253 15.9143 27.5348 15.8895C27.6443 15.8647 27.7572 15.8648 27.8666 15.8899C27.9761 15.915 28.0798 15.9644 28.1716 16.0353C28.2633 16.1062 28.3411 16.1971 28.4004 16.3024C28.4596 16.4077 28.499 16.5252 28.5161 16.6479C28.5333 16.7706 28.5279 16.8959 28.5002 17.0162C28.4725 17.1365 28.4231 17.2493 28.3551 17.3478C28.287 17.4463 28.2017 17.5284 28.1042 17.5892Z" fill="#016956"/>
<path d="M42.2858 21.4815C42.2828 33.3285 32.8196 42.9432 21.1572 42.9523C9.46474 42.9599 -0.0270186 33.3057 5.77851e-05 21.4328C0.0271341 9.5827 9.50535 -0.0152094 21.1677 1.80943e-05C32.8316 0.0152456 42.2903 9.63447 42.2858 21.4815ZM40.3438 21.5272C40.3543 10.74 31.8178 2.0268 21.27 1.9598C10.5944 1.8928 1.92549 10.7324 1.93752 21.4236C1.94955 32.2108 10.4696 40.924 21.0173 40.991C31.6914 41.058 40.3799 32.2199 40.3453 21.5272H40.3438Z" fill="#016956"/>
</svg>
