<svg width="59" height="61" viewBox="0 0 59 61" fill="none" xmlns="http://www.w3.org/2000/svg">
<path d="M29.2019 0.620754C37.5514 0.620754 45.9033 0.714931 54.2504 0.573666C57.5226 0.51985 59.4293 3.22631 57.9975 5.80721C56.965 7.66832 56.7453 9.64828 56.7571 11.7448C56.8209 24.4901 56.8115 37.2354 56.7642 49.9784C56.7571 51.7745 57.0217 53.4383 57.8581 55.0505C58.1794 55.6716 58.4039 56.3892 58.4464 57.0776C58.5622 58.9476 57.0572 60.441 55.0797 60.5419C54.8836 60.5509 54.6851 60.5486 54.489 60.5486C37.6317 60.5486 20.7745 60.5531 3.91718 60.5464C0.859953 60.5464 -0.756078 58.2974 0.347265 55.6133C0.647317 54.8846 1.01352 54.1805 1.26632 53.4383C1.46715 52.8486 1.65615 52.2185 1.65852 51.6063C1.67978 37.5897 1.70813 23.5752 1.62072 9.56083C1.61127 8.25581 0.751272 6.97097 0.427593 5.64801C0.20787 4.77126 0.016498 3.79138 0.212595 2.94154C0.555175 1.43471 1.97983 0.625239 3.79905 0.622996C12.2667 0.618512 20.7343 0.622996 29.2019 0.620754ZM53.466 9.91511H5.03234V37.0964C21.2352 34.4863 37.327 31.8964 53.4684 29.2976V9.91511H53.466ZM4.98745 51.2565H53.4589V33.0849C52.8848 33.3001 52.4146 33.4571 51.961 33.6522C41.0504 38.3408 30.1328 43.0205 19.2364 47.7406C17.0935 48.6689 15.1774 48.5478 13.2519 47.2383C10.8869 45.6283 8.44632 44.117 6.03645 42.5676C5.73403 42.3725 5.41744 42.1976 4.98745 41.942V51.2565ZM3.18477 3.76895C3.43048 4.41922 3.66438 4.88562 3.78015 5.37893C4.04712 6.52923 4.75355 6.79382 5.96321 6.78485C15.2176 6.73104 24.472 6.7557 33.7263 6.7557C40.1456 6.7557 46.5648 6.75795 52.984 6.74898C53.3621 6.74898 53.974 6.7714 54.0779 6.58529C54.5552 5.73321 54.8883 4.80714 55.3348 3.77119H3.18477V3.76895ZM3.13279 57.3982H55.3018C54.9639 56.5506 54.6473 55.8465 54.404 55.12C54.2173 54.5594 53.87 54.4137 53.2723 54.4137C37.2443 54.4271 21.2139 54.4249 5.18591 54.4339C4.8953 54.4339 4.42987 54.4742 4.34718 54.6334C3.90773 55.4833 3.56751 56.378 3.13043 57.3982H3.13279ZM42.1562 34.4841C42.1325 34.4101 42.1065 34.3361 42.0829 34.2621C30.6833 36.0985 19.2836 37.9327 7.56506 39.8208C10.2868 41.5742 12.7416 43.1102 15.1373 44.7247C16.0563 45.3436 16.8572 45.375 17.859 44.9377C23.6002 42.4353 29.3602 39.9732 35.1156 37.5C37.4616 36.4909 39.8077 35.4886 42.1562 34.4841Z" fill="#558E60"/>
<path d="M11.298 12.5453C11.9076 12.6193 12.7038 12.6462 13.4645 12.8167C16.7202 13.5432 19.9381 13.1597 23.1607 12.6171C25.2351 12.2673 26.629 13.0364 27.0567 14.763C27.1417 15.1083 27.1512 15.5097 27.0567 15.8505C26.4518 17.9829 26.4495 20.0885 27.0259 22.2433C27.5339 24.1448 26.0171 25.7413 23.9356 25.5911C22.6055 25.4947 21.2635 25.3646 19.9617 25.091C17.4975 24.5708 15.1207 25.2009 12.7132 25.4319C12.2052 25.4812 11.6996 25.5776 11.1893 25.6C9.24253 25.6875 7.8982 24.3466 8.0683 22.5012C8.08484 22.3151 8.10374 22.1245 8.16045 21.9496C8.79599 20.0167 8.68258 18.1107 8.16753 16.1555C7.62649 14.0925 8.99681 12.5162 11.298 12.5453ZM11.2626 15.6913C12.1391 17.9829 12.1509 20.1378 11.2177 22.5998C15.5413 21.6446 19.6073 21.6446 24.0302 22.6111C22.8701 20.0907 23.2458 17.9022 23.7703 15.716C21.5589 15.9559 19.5719 16.3438 17.5873 16.3393C15.572 16.3348 13.5543 15.9447 11.2626 15.6913Z" fill="#558E60"/>
<path d="M31.411 22.8061C31.4204 22.7321 31.4228 22.6559 31.444 22.5841C32.1292 20.3127 31.9426 18.0681 31.4795 15.7653C31.0991 13.884 32.6324 12.5319 34.6596 12.7068C35.9495 12.8167 37.2514 12.9288 38.5154 13.1889C41.341 13.7741 44.0581 12.9624 46.82 12.7359C49.4519 12.5184 50.9404 13.9759 50.3237 16.4043C49.8441 18.2924 49.837 20.0974 50.319 21.9877C50.9545 24.4789 49.2818 26.1449 46.6191 25.6561C42.7917 24.9543 39.0068 24.97 35.1817 25.6673C32.9183 26.0799 31.3188 24.7794 31.4133 22.8039L31.411 22.8061ZM34.5651 22.7344C38.9146 21.8038 42.9453 21.7298 46.7869 22.62V15.7743C42.9216 16.6846 38.891 16.6196 34.5981 15.6913C35.4321 18.1466 35.5007 20.3037 34.5651 22.7366V22.7344Z" fill="#558E60"/>
</svg>
