<svg width="55" height="55" viewBox="0 0 55 55" fill="none" xmlns="http://www.w3.org/2000/svg">
<path d="M27.4772 4.58331C14.8272 4.58331 4.5835 14.85 4.5835 27.5C4.5835 40.15 14.8272 50.4166 27.4772 50.4166C40.1502 50.4166 50.4168 40.15 50.4168 27.5C50.4168 14.85 40.1502 4.58331 27.4772 4.58331ZM27.5002 45.8333C17.371 45.8333 9.16683 37.6291 9.16683 27.5C9.16683 17.3708 17.371 9.16665 27.5002 9.16665C37.6293 9.16665 45.8335 17.3708 45.8335 27.5C45.8335 37.6291 37.6293 45.8333 27.5002 45.8333ZM28.646 16.0416H25.2085V29.7916L37.2397 37.0104L38.9585 34.1916L28.646 28.0729V16.0416Z" fill="#558E60"/>
</svg>
