<svg width="43" height="43" viewBox="0 0 43 43" fill="none" xmlns="http://www.w3.org/2000/svg">
<path d="M21.5422 11.0001C15.7804 11.0001 11.0844 15.6725 11.0844 21.4055C11.0844 23.243 11.5698 25.028 12.4774 26.603L11 32L16.5402 30.551C18.0704 31.3805 19.7905 31.8215 21.5422 31.8215C27.304 31.8215 32 27.149 32 21.416C32 18.6335 30.9131 16.019 28.9397 14.0556C27.9722 13.0832 26.8198 12.3122 25.5498 11.7876C24.2797 11.263 22.9174 10.9953 21.5422 11.0001ZM21.5528 12.7536C23.8744 12.7536 26.0482 13.6566 27.6945 15.2945C28.5024 16.0982 29.1429 17.0526 29.5794 18.103C30.0158 19.1535 30.2395 20.2794 30.2377 21.416C30.2377 26.183 26.3332 30.0575 21.5422 30.0575C19.9804 30.0575 18.4503 29.648 17.1206 28.85L16.804 28.6715L13.5116 29.5325L14.3874 26.3405L14.1764 26.0045C13.3047 24.6276 12.8436 23.0328 12.8467 21.4055C12.8573 16.6385 16.7513 12.7536 21.5528 12.7536ZM17.8382 16.5965C17.6693 16.5965 17.3844 16.6595 17.1417 16.922C16.9095 17.1845 16.2236 17.825 16.2236 19.0955C16.2236 20.3765 17.1628 21.605 17.2789 21.7835C17.4266 21.962 19.1362 24.587 21.7638 25.7C22.3864 25.9835 22.8719 26.141 23.2518 26.2565C23.8744 26.456 24.4442 26.4245 24.898 26.3615C25.4045 26.288 26.4387 25.7315 26.6603 25.1225C26.8819 24.5135 26.8819 23.999 26.8186 23.8835C26.7447 23.7785 26.5759 23.7155 26.3121 23.6C26.0482 23.453 24.7608 22.823 24.5286 22.739C24.2859 22.655 24.1382 22.613 23.9377 22.865C23.7688 23.1275 23.2623 23.7155 23.1146 23.8835C22.9563 24.062 22.8085 24.083 22.5553 23.957C22.2809 23.8205 21.4367 23.5475 20.4447 22.6655C19.6638 21.9725 19.1467 21.122 18.9884 20.8595C18.8618 20.6075 18.9779 20.45 19.1045 20.3345C19.2206 20.219 19.3894 20.03 19.495 19.8725C19.6322 19.7255 19.6744 19.61 19.7588 19.442C19.8432 19.2635 19.801 19.1165 19.7377 18.9905C19.6744 18.875 19.1467 17.573 18.9251 17.0585C18.7141 16.5545 18.503 16.6175 18.3342 16.607C18.1864 16.607 18.0176 16.5965 17.8382 16.5965Z" fill="#016956"/>
<path d="M42.2858 21.4815C42.2828 33.3285 32.8196 42.9432 21.1572 42.9523C9.46474 42.9599 -0.0270186 33.3057 5.77851e-05 21.4328C0.0271341 9.5827 9.50535 -0.0152094 21.1677 1.80943e-05C32.8316 0.0152456 42.2903 9.63447 42.2858 21.4815ZM40.3438 21.5272C40.3543 10.74 31.8178 2.0268 21.27 1.9598C10.5944 1.8928 1.92549 10.7324 1.93752 21.4236C1.94955 32.2108 10.4696 40.924 21.0173 40.991C31.6914 41.058 40.3799 32.2199 40.3453 21.5272H40.3438Z" fill="#016956"/>
</svg>
