<svg width="1113" height="116" viewBox="0 0 1113 116" fill="none" xmlns="http://www.w3.org/2000/svg">
<path d="M540.5 76.463C547.526 76.463 554.263 76.418 561.001 76.4991C562.338 76.5171 564.5 75.9496 564.392 78.287C564.284 80.5704 562.199 79.8543 560.839 79.8273C549.485 79.6381 538.19 80.138 526.314 82.2863C527.8 82.9123 528.719 83.4302 529.705 83.6869C532.529 84.421 535.375 85.083 538.23 85.709C539.415 85.9657 540.604 86.299 540.379 87.7492C540.135 89.3209 538.91 89.3164 537.577 89.0687C532.101 88.0554 526.787 86.6818 521.833 83.9391C520.693 83.3086 518.689 83.9796 517.167 84.3759C513.028 85.4523 510.754 88.3842 510.655 92.7212C510.565 96.6979 510.583 100.679 510.65 104.66C510.713 108.299 512.618 110.128 516.311 110.141C526.746 110.168 537.181 110.15 547.616 110.15C558.501 110.15 569.387 110.15 580.272 110.155C581.02 110.155 581.857 110.033 582.483 110.33C583.046 110.596 583.717 111.366 583.708 111.902C583.699 112.447 583.015 113.172 582.443 113.465C581.902 113.749 581.123 113.6 580.452 113.6C559.285 113.6 538.113 113.609 516.946 113.6C510.578 113.6 507.245 110.249 507.236 103.881C507.236 100.125 507.2 96.3736 507.245 92.6176C507.308 87.0871 510.65 82.606 516.009 81.1829C519.986 80.1245 524.026 79.2238 528.088 78.5798C529.98 78.278 530.367 77.5574 530.318 75.8415C530.205 72.0134 530.263 68.1853 530.291 64.3528C530.313 60.7859 532.34 58.4305 535.357 58.4079C538.384 58.3809 540.473 60.7363 540.5 64.2762C540.532 68.4601 540.509 72.6394 540.509 76.454L540.5 76.463ZM537.023 77.2917C537.023 72.6034 537.087 68.1088 536.951 63.6142C536.933 63.0062 535.929 62.4297 535.384 61.8397C534.848 62.3621 533.862 62.8711 533.848 63.4025C533.727 68.1043 533.776 72.8061 533.776 77.6745C535.001 77.5304 535.943 77.4178 537.023 77.2872V77.2917Z" fill="#558E60"/>
<path d="M581.492 77.9898C585.798 78.9175 589.977 79.7237 594.107 80.7325C601.43 82.5204 604.533 86.5557 604.538 94.0407C604.538 97.6437 604.569 101.247 604.529 104.845C604.47 109.916 600.966 113.465 595.904 113.596C593.729 113.65 591.536 113.758 589.387 113.519C588.635 113.438 587.987 112.393 587.293 111.79C587.978 111.245 588.617 110.308 589.351 110.231C591.427 110.015 593.544 110.177 595.643 110.137C599.07 110.074 601.029 108.29 601.106 104.926C601.2 100.724 601.25 96.5178 601.083 92.3204C600.881 87.2312 595.62 82.8267 590.738 83.4617C590.459 83.4977 590.175 83.6463 589.928 83.795C582.208 88.3977 573.561 89.5101 564.874 90.0866C558.83 90.4874 552.737 90.1766 546.661 90.1541C545.923 90.1541 545.067 90.1271 544.486 89.7623C543.968 89.438 543.419 88.5598 543.513 88.0419C543.612 87.5015 544.409 86.8439 545.004 86.7043C545.846 86.5107 546.783 86.7494 547.684 86.8034C559.046 87.4835 570.319 87.0781 581.348 83.8986C582.353 83.6103 583.334 83.223 584.312 82.8582C584.501 82.7861 584.645 82.5925 585.271 82.0701C580.074 81.4531 575.309 80.8856 570.54 80.3272C570.094 80.2731 569.526 80.4398 569.215 80.2236C568.504 79.7237 567.918 79.0526 567.279 78.4491C567.968 77.9087 568.603 77.2692 569.369 76.8729C569.765 76.6702 570.386 76.8999 571.26 76.9629C571.26 74.6661 571.26 72.4548 571.26 70.2435C571.26 68.0683 571.206 65.8885 571.278 63.7132C571.382 60.6417 573.494 58.4575 576.286 58.4079C579.164 58.3539 581.393 60.5877 581.456 63.7718C581.533 67.6719 581.479 71.5766 581.479 75.4767C581.479 76.2964 581.479 77.1116 581.479 77.9808L581.492 77.9898ZM578.007 77.652C578.007 72.8241 578.065 68.1899 577.93 63.5601C577.912 62.9746 576.881 62.4162 576.318 61.8442C575.8 62.3802 574.845 62.9071 574.827 63.4565C574.705 68.0142 574.759 72.5764 574.759 77.3007C575.881 77.4223 576.813 77.5214 578.007 77.6475V77.652Z" fill="#558E60"/>
<path d="M556.272 1C577.471 1.39182 596.197 8.75977 611.906 23.6173C612.068 23.7704 612.234 23.928 612.392 24.0857C613.275 24.9729 614.207 25.9277 612.955 27.1211C611.842 28.184 610.928 27.4003 610.059 26.5762C608.807 25.3872 607.555 24.1983 606.244 23.0769C575.876 -2.91366 530.885 -1.58509 502.138 26.1483C501.814 26.4591 501.526 26.977 501.156 27.0401C500.377 27.1797 499.553 27.0896 498.747 27.0896C498.765 26.2879 498.454 25.1891 498.864 24.7387C500.368 23.0768 502.048 21.5546 503.773 20.1135C518.86 7.50326 536.307 1.29724 556.272 1Z" fill="#558E60"/>
<path d="M555.925 28.0489C571.859 28.3507 585.636 33.719 597.255 44.4962C597.751 44.9556 598.431 45.3835 598.615 45.9554C598.831 46.6175 598.863 47.7073 598.471 48.0946C598.075 48.482 597.026 48.3649 596.318 48.2117C595.877 48.1172 595.535 47.5497 595.152 47.1894C572.918 26.1889 538.802 26.2205 516.536 47.266C516.208 47.5767 515.91 48.0946 515.546 48.1442C514.762 48.2523 513.776 48.3739 513.208 47.9911C512.866 47.7614 513.006 46.5409 513.217 45.8608C513.379 45.3519 513.996 44.9781 514.433 44.5683C526.161 33.656 540.081 28.2741 555.921 28.0444L555.925 28.0489Z" fill="#558E60"/>
<path d="M556.227 41.5823C568.941 41.7894 580.439 46.167 590.121 55.1517C590.563 55.5616 591.193 55.9309 591.342 56.4398C591.54 57.1198 591.635 58.1917 591.256 58.579C590.864 58.9753 589.676 59.0384 589.131 58.7231C588.113 58.1377 587.325 57.1604 586.415 56.3812C568.238 40.7581 541.541 41.2805 523.976 57.5972C523.648 57.9035 523.364 58.4169 522.99 58.4889C522.152 58.6511 521.274 58.597 520.41 58.6286C520.504 57.7729 520.274 56.5028 520.747 56.1335C524.571 53.1341 528.309 49.9365 532.488 47.5046C539.622 43.3522 547.553 41.7174 556.227 41.5868V41.5823Z" fill="#558E60"/>
<path d="M554.453 14.502C574.584 14.8758 590.815 21.2124 604.47 33.9757C604.907 34.3855 605.519 34.7458 605.704 35.2592C605.952 35.9348 606.163 37.1598 605.848 37.385C605.281 37.7858 604.276 37.7858 603.515 37.6327C603.015 37.5336 602.624 36.876 602.182 36.4662C586.766 22.2887 568.648 16.2899 547.819 18.4967C547.071 18.5777 546.26 18.875 545.598 18.6768C544.797 18.4381 544.121 17.7851 543.392 17.3077C543.991 16.6727 544.522 15.5828 545.202 15.4837C548.76 14.9703 552.349 14.7091 554.453 14.502Z" fill="#558E60"/>
<path d="M524.683 104.597C522.738 104.597 520.792 104.561 518.851 104.611C517.108 104.656 516.181 104.007 516.226 102.129C516.289 99.5891 516.275 97.04 516.226 94.5C516.199 92.8922 516.942 92.1401 518.509 92.1355C522.621 92.131 526.737 92.1355 530.849 92.1355C532.439 92.1355 533.155 92.9327 533.141 94.5C533.123 97.0445 533.11 99.5891 533.146 102.129C533.173 103.962 532.281 104.674 530.511 104.615C528.57 104.552 526.625 104.602 524.679 104.602L524.683 104.597ZM529.66 95.7565H519.824V100.994H529.66V95.7565Z" fill="#558E60"/>
<path d="M540.595 18.8524C539.861 19.3073 539.064 20.0684 538.127 20.3296C529.804 22.658 522.17 26.378 515.316 31.6338C513.06 33.3632 510.965 35.3087 508.835 37.1958C507.903 38.0244 506.813 38.682 505.998 37.4795C505.633 36.9391 505.939 35.4078 506.48 34.8719C515.275 26.1258 525.728 20.217 537.69 16.9519C539.073 16.5736 540.054 16.8168 540.595 18.8524Z" fill="#558E60"/>
<path d="M563.951 100.868C563.149 99.7287 562.226 98.9766 562.343 98.4497C562.501 97.7336 563.446 97.1932 564.054 96.5762C564.631 97.2247 565.55 97.8147 565.667 98.5353C565.757 99.0667 564.802 99.7738 563.946 100.868H563.951Z" fill="#558E60"/>
<path d="M572.917 100.868C572.134 99.7152 571.229 98.9451 571.35 98.4182C571.517 97.7066 572.476 97.1797 573.098 96.5762C573.661 97.2337 574.566 97.8417 574.674 98.5668C574.75 99.1027 573.787 99.7918 572.917 100.873V100.868Z" fill="#558E60"/>
<path d="M581.844 95.8015C582.771 96.9184 583.744 97.5895 583.677 98.1344C583.591 98.8505 582.785 99.7872 582.091 100.008C581.673 100.139 580.425 99.1342 580.376 98.5622C580.312 97.8642 581.11 97.0896 581.844 95.8015Z" fill="#558E60"/>
<path d="M591.081 100.954C590.22 99.7153 589.356 99.0083 589.374 98.3237C589.387 97.7337 590.396 97.1618 590.968 96.5808C591.581 97.1888 592.535 97.7202 592.697 98.4318C592.819 98.9587 591.918 99.7244 591.081 100.958V100.954Z" fill="#558E60"/>
<path d="M1108.77 49.0623H1096.87C1096.87 49.945 1097.07 51.0304 1096.8 51.9806C1096.6 52.6697 1095.77 53.1696 1095.22 53.7551C1094.67 53.1741 1094.12 52.5976 1093.57 52.0167C1093.53 51.9761 1093.56 51.8725 1093.56 51.796C1093.12 47.1888 1093.13 46.914 1088.49 46.7429C1085.41 46.6303 1082.29 47.3959 1079.19 47.8598C1078.09 48.0264 1077.03 48.6524 1075.95 48.6795C1075.24 48.6975 1074.52 47.9994 1073.81 47.6256C1074.28 46.914 1074.61 45.8016 1075.27 45.5539C1080.75 43.4913 1086.39 42.4509 1092.24 43.8155C1092.58 43.8966 1092.94 43.8921 1093.4 43.9371V40.4243H1069.85C1069.85 43.6759 1069.85 46.8735 1069.85 50.0666C1069.85 50.7421 1070.06 51.5303 1069.78 52.0662C1069.43 52.7372 1068.75 53.4713 1068.07 53.6335C1067.71 53.7235 1066.57 52.5976 1066.64 52.1563C1067.1 49.2649 1065.27 48.9317 1063.14 48.1886C1057.36 46.1844 1051.77 46.1664 1045.97 48.1886C1040.88 49.9675 1035.62 49.8054 1030.5 48.0399C1025.11 46.1844 1019.84 46.1394 1014.43 48.067C1009.5 49.8279 1004.43 49.7378 999.362 48.3462C997.57 47.8553 996.75 47.0266 996.8 45.0585C996.921 40.3342 996.831 35.6009 996.845 30.8721C996.849 28.2329 997.124 27.9672 999.88 27.9672C1021.12 27.9627 1042.37 27.9672 1063.62 27.9672C1064.49 27.9672 1065.37 27.9672 1066.83 27.9672C1066.45 24.5039 1066.25 21.3153 1065.68 18.1898C1065.5 17.199 1064.34 16.3884 1063.63 15.4966C1062.94 16.4154 1062.02 17.244 1061.63 18.2754C1061.13 19.5814 1061.23 21.0992 1060.78 22.4277C1060.53 23.1844 1059.7 23.7473 1059.13 24.4003C1058.6 23.7248 1057.64 23.0673 1057.61 22.3647C1057.46 19.3878 1058.08 16.519 1059.97 14.1095C1062.13 11.3623 1065.53 11.2092 1067.3 14.1771C1068.63 16.3974 1069.25 19.1356 1069.75 21.7297C1070.13 23.6617 1069.83 25.7244 1069.83 27.8411H1093.86C1093.46 24.4319 1093.18 21.1172 1092.61 17.852C1092.46 16.9828 1091.4 16.2668 1090.76 15.4831C1090.07 16.3028 1089.12 17.0189 1088.76 17.9601C1088.24 19.3337 1088.3 20.928 1087.81 22.3197C1087.53 23.1168 1086.65 23.7068 1086.04 24.3868C1085.54 23.6707 1084.66 22.9727 1084.63 22.2431C1084.5 19.3427 1085.12 16.555 1086.93 14.1906C1089.12 11.3398 1092.58 11.2002 1094.41 14.2716C1095.7 16.4379 1096.3 19.1041 1096.78 21.6261C1097.15 23.5717 1096.85 25.6388 1096.85 27.9627C1100.77 27.9627 1104.5 27.9627 1108.22 27.9627C1110.84 27.9627 1112.16 29.3093 1112.16 32.0025C1112.16 34.1777 1112.15 36.3575 1112.16 38.5328C1112.16 39.7938 1112.13 41.1224 1110.43 41.1043C1108.7 41.0863 1108.78 39.6767 1108.77 38.4652C1108.75 36.1593 1108.76 33.849 1108.76 31.417H1096.88C1096.88 35.8081 1096.83 40.0685 1096.95 44.3244C1096.96 44.7568 1097.9 45.5359 1098.4 45.5224C1101.88 45.4504 1105.4 45.4413 1108.85 44.955C1111.53 44.5766 1112.15 44.7433 1112.15 47.4365C1112.17 54.944 1112.15 62.4516 1112.16 69.9592C1112.16 71.1887 1112.22 72.5848 1110.53 72.6298C1108.64 72.6794 1108.78 71.1391 1108.77 69.8691C1108.75 67.4101 1108.76 64.9511 1108.76 62.2489C1107.57 62.4156 1106.64 62.5777 1105.71 62.6723C1101.63 63.0956 1097.63 62.7578 1093.74 61.3392C1089.06 59.6323 1084.31 59.6188 1079.62 61.2401C1073.5 63.3523 1067.44 63.3703 1061.33 61.2221C1056.79 59.6233 1052.18 59.6323 1047.64 61.2311C1041.61 63.3523 1035.61 63.3839 1029.56 61.2987C1024.79 59.6503 1019.99 59.6188 1015.23 61.3527C1010.44 63.0956 1005.56 63.2082 1000.26 62.1769C1000.26 66.8066 1000.2 71.2832 1000.34 75.7509C1000.35 76.2057 1001.41 76.8723 1002.08 77.0254C1005.89 77.9036 1009.7 77.7144 1013.38 76.3814C1019.42 74.1971 1025.38 74.3682 1031.47 76.2643C1033.94 77.0299 1036.63 77.0344 1039.18 77.5838C1040.02 77.764 1041.24 78.453 1041.38 79.1016C1041.69 80.6148 1040.35 80.9751 1039.17 80.8355C1036.21 80.4752 1033.17 80.2995 1030.34 79.4529C1025.06 77.8721 1019.91 77.6064 1014.68 79.5294C1010.12 81.2048 1005.43 81.1822 1000.55 80.2545C1000.44 80.7859 1000.26 81.2588 1000.25 81.7362C1000.23 86.9919 1000.28 92.2477 1000.21 97.5034C1000.19 98.85 1000.75 99.3499 1001.96 99.5931C1005.87 100.377 1009.73 100.233 1013.49 98.8771C1019.45 96.7288 1025.39 96.7739 1031.35 98.8275C1036.22 100.507 1041.06 100.449 1045.9 98.7555C1051.64 96.7558 1057.38 96.7513 1063.11 98.7555C1068.04 100.48 1072.95 100.462 1077.88 98.7555C1083.69 96.7558 1089.5 96.7333 1095.31 98.805C1099.07 100.147 1102.93 100.462 1106.82 99.5616C1107.54 99.395 1108.66 98.6564 1108.67 98.161C1108.8 92.2567 1108.75 86.3524 1108.75 80.831C1104.68 80.6463 1100.89 80.5427 1097.12 80.2725C1095.95 80.1869 1094.79 79.7186 1093.66 79.3222C1089.03 77.6964 1084.36 77.6289 1079.76 79.2232C1073.56 81.3624 1067.43 81.4074 1061.25 79.2142C1056.86 77.6604 1052.41 77.7415 1047.97 79.1061C1046.79 79.4709 1045.49 79.9167 1044.99 78.2774C1044.5 76.6651 1045.8 76.2147 1046.98 75.8634C1052.16 74.3277 1057.36 74.2511 1062.47 76.0526C1067.77 77.9261 1073.01 77.9486 1078.33 76.1202C1083.83 74.2286 1089.38 74.2196 1094.88 76.1742C1099.56 77.8315 1104.27 77.9666 1109.03 76.53C1111.39 75.8184 1112.14 76.3318 1112.15 78.6917C1112.18 85.6003 1112.12 92.5044 1112.19 99.413C1112.21 101.079 1111.5 101.867 1110 102.3C1104.81 103.8 1099.6 103.921 1094.51 102.102C1089.18 100.197 1083.95 100.233 1078.65 102.048C1073.14 103.93 1067.6 103.894 1062.09 101.967C1057.01 100.188 1051.96 100.197 1046.88 101.971C1041.3 103.921 1035.7 103.894 1030.11 101.971C1024.97 100.201 1019.84 100.179 1014.68 102.03C1009.5 103.885 1004.24 103.804 998.975 102.291C997.475 101.858 996.8 101.048 996.809 99.3905C996.858 84.2267 996.84 69.0584 996.831 53.8947C996.831 52.6877 996.944 51.5032 998.457 51.4312C1000.01 51.3591 1000.2 52.5481 1000.22 53.7551C1000.22 53.9037 1000.22 54.0568 1000.22 54.2054C1000.33 59.2 1000.39 59.4567 1005.48 59.4116C1008.36 59.3846 1011.32 58.9253 1014.08 58.0786C1019.66 56.3627 1025.15 56.2005 1030.64 58.0921C1035.97 59.9206 1041.2 59.889 1046.51 58.0335C1051.86 56.169 1057.28 56.2051 1062.62 58.0786C1067.86 59.9115 1073.03 59.9115 1078.28 58.1056C1083.85 56.1825 1089.46 56.2141 1095.04 58.1867C1098.87 59.5422 1102.78 59.8485 1106.79 59.0829C1108.18 58.8172 1108.86 58.2992 1108.79 56.7455C1108.67 54.1424 1108.76 51.5348 1108.76 49.0488L1108.77 49.0623ZM1000.24 31.426C1000.24 35.4433 1000.3 39.3254 1000.2 43.203C1000.17 44.7118 1000.72 45.3017 1002.16 45.581C1006.24 46.3646 1010.21 46.0178 1014.11 44.6442C1019.62 42.7031 1025.15 42.6941 1030.64 44.5812C1035.95 46.4096 1041.18 46.3961 1046.48 44.5406C1051.82 42.6761 1057.21 42.7617 1062.58 44.5316C1063.77 44.9234 1064.98 45.2342 1066.31 45.617V31.426H1000.24ZM1069.91 36.8169H1093.34V31.4891H1069.91V36.8169Z" fill="#558E60"/>
<path d="M76.1169 84.209C74.6397 84.4027 73.167 84.6098 71.6898 84.7855C67.8843 85.2404 64.7002 86.8932 62.0791 89.69C61.0522 90.7843 60.0524 91.9508 58.8455 92.8065C58.296 93.1983 57.2647 92.9101 56.4495 92.9281C56.463 92.1219 56.1388 91.014 56.5441 90.5592C60.8541 85.7223 65.4973 81.3988 72.5996 81.3897C74.3065 81.3897 75.635 80.6016 75.572 78.7461C75.5044 76.751 74.0362 76.1565 72.2528 76.2421C65.7045 76.5618 59.9939 78.8857 55.2245 83.4209C54.0266 84.5603 52.8961 85.7628 51.7027 86.9067C48.7258 89.753 45.2129 89.4152 42.9521 85.9654C39.0655 80.0296 33.6025 76.814 26.5543 76.2736C23.5774 76.0439 21.6454 77.8048 21.9561 80.3809C22.1948 82.3535 23.7531 83.8938 26.131 83.565C30.1843 83.0021 32.0263 84.7405 33.2332 88.4064C34.0844 90.987 35.9354 93.2253 37.1289 95.7158C37.4802 96.4454 37.1019 97.5263 37.0613 98.445C36.1741 98.1613 34.8591 98.1568 34.4672 97.5533C32.8009 94.9862 31.1931 92.3336 29.9951 89.5278C29.1665 87.5913 28.2432 86.8211 26.0815 86.9067C22.1678 87.0553 19.1459 84.6774 18.6324 81.1556C18.4163 79.6648 18.8081 78.0841 18.9477 76.2196C15.7951 76.2196 12.4625 76.2196 9.12976 76.2196C8.08041 76.2196 7.02656 76.2421 5.97721 76.2061C2.53643 76.0664 0.0549234 73.666 0.000879717 70.4414C-0.053164 67.1357 2.47788 64.5416 6.00423 64.4515C9.29189 64.366 12.5841 64.4335 15.6195 64.4335C16.5878 60.2812 17.3579 56.3315 18.4658 52.4764C19.1008 50.2696 20.2583 48.2069 21.2401 46.1037C21.749 45.0138 22.5236 44.0681 23.8657 44.8022C25.1852 45.5227 24.8295 46.6351 24.226 47.716C21.5148 52.5709 20.0196 57.7907 19.5827 63.3256C19.5602 63.6094 19.6142 63.8931 19.6413 64.3029H96.041C95.352 60.9657 94.9692 57.7051 94.0009 54.6246C85.3269 26.9903 49.9328 18.8657 29.9771 39.8707C29.6168 40.249 29.3151 40.848 28.8827 40.9651C28.1171 41.1722 27.2749 41.0867 26.4598 41.1272C26.4598 40.312 26.1355 39.2357 26.5318 38.7313C27.6848 37.2676 29.0494 35.948 30.468 34.7275C36.4038 29.6204 43.2403 26.4048 50.9866 25.1483C51.3469 25.0897 51.7027 24.9726 52.2026 24.8465C51.2838 21.6534 51.6081 18.8116 54.6616 16.9652C56.7828 15.6816 59.0031 15.7762 61.0162 17.2038C63.6463 19.0639 64.0111 21.685 63.0248 24.8645C72.9599 26.4003 81.4447 30.6562 88.2137 38.0332C94.9511 45.3741 98.5451 54.0932 99.1936 64.2129C99.5764 64.2894 100.081 64.2444 100.369 64.4741C101.004 64.9785 101.531 65.6225 102.098 66.208C101.414 66.7664 100.801 67.4735 100.027 67.8338C99.4683 68.0905 98.6982 67.8923 98.0226 67.8923C67.9248 67.8923 37.827 67.8923 7.72913 67.8923C4.58559 67.8923 3.50471 68.5003 3.45968 70.2793C3.41014 72.1438 4.64413 72.8869 7.80119 72.8869C41.0516 72.8869 74.302 72.8869 107.552 72.8869C108.228 72.8869 108.917 72.9409 109.574 72.8328C111.02 72.5986 112.11 71.6799 111.736 70.2522C111.498 69.3425 110.34 68.6444 109.516 67.9419C109.291 67.7482 108.678 68.0274 108.435 67.8383C107.796 67.3474 107.264 66.7214 106.692 66.1494C107.345 65.5775 107.94 64.6092 108.66 64.5101C112.038 64.0327 115.105 66.6899 115.285 70.0361C115.465 73.3643 112.979 76.0799 109.507 76.179C106.296 76.2691 103.076 76.197 99.698 76.197C100.77 80.8538 98.2838 82.6463 94.8431 85.1323C89.0604 89.3071 83.9983 94.7205 82.404 102.242C81.7059 105.538 81.1025 108.866 80.6476 112.204C80.3549 114.347 79.5757 115.325 77.2158 115.293C68.3617 115.172 59.503 115.203 50.6443 115.28C48.5546 115.298 47.6539 114.708 47.2171 112.483C46.8703 110.731 45.5957 109.047 44.3933 107.614C43.3034 106.317 41.646 105.511 40.4661 104.273C40.0157 103.8 40.2004 102.728 40.0923 101.926C40.9525 101.899 42.1144 101.489 42.6233 101.899C45.7849 104.453 49.6445 106.439 50.5948 110.983C50.6713 111.348 51.6261 111.749 52.1756 111.753C60.0569 111.803 67.9383 111.816 75.8197 111.722C76.3781 111.713 77.2654 110.844 77.414 110.231C77.9769 107.903 78.2832 105.516 78.72 103.156C79.7964 97.2966 82.5076 92.3021 86.6735 88.0686C87.2274 87.5057 87.7633 86.9202 88.3083 86.3483C88.1326 86.1546 87.957 85.9609 87.7859 85.7673C85.5971 87.7038 83.4218 89.6584 81.2196 91.577C80.1657 92.4957 79.1794 94.4413 77.5671 92.883C75.9007 91.2752 77.8778 90.2619 78.8191 89.2621C79.9315 88.0777 81.1925 87.0328 82.3905 85.9249C82.2058 85.6727 82.0167 85.4205 81.832 85.1683C80.0486 86.2807 78.1616 87.258 76.5042 88.537C75.0315 89.6764 73.8021 91.1311 72.4825 92.4642C71.5953 93.3604 70.4739 93.9774 69.6452 92.802C69.2624 92.2615 69.5596 90.7483 70.0865 90.1583C71.9601 88.0506 74.0678 86.1501 76.0854 84.1685C79.3641 82.7273 82.6202 81.2997 86.3402 81.3087C87.8489 81.3087 88.8262 80.2503 88.7226 78.6155C88.628 77.0933 87.6012 76.2196 86.1961 76.2871C83.7731 76.4087 81.3637 76.8186 78.7606 77.1248C79.5217 80.3989 77.9949 82.376 76.1259 84.2045L76.1169 84.209ZM38.9484 76.2961C41.2948 79.0073 43.6412 81.669 45.9335 84.3802C46.8793 85.5016 47.9061 85.7718 49.0095 84.7855C52.135 81.9932 55.2065 79.1379 58.314 76.2961H38.9484ZM91.9878 81.4663C93.5685 81.3177 95.5276 81.8446 96.3383 79.7955C96.6265 79.0659 96.4148 77.7778 95.9194 77.1653C94.8611 75.8638 93.3569 76.0619 91.9923 76.5258V81.4663H91.9878ZM60.5343 22.5857C60.5343 22.2299 60.5343 21.8741 60.5388 21.5183C59.5615 20.8473 58.5617 19.6313 57.6115 19.6718C56.7513 19.7079 55.4542 20.9959 55.2335 21.9372C54.8913 23.3919 56.0667 24.6484 57.5664 24.4592C58.6203 24.3241 59.5525 23.2432 60.5388 22.5857H60.5343Z" fill="#558E60"/>
<path d="M80.1522 16.8705C80.1522 7.96232 87.2679 0.48628 96.1852 0.0224046C105.057 -0.44147 113.024 6.35452 113.889 15.1411C113.948 15.7356 114.105 16.4202 113.889 16.9201C113.632 17.5145 112.948 18.4063 112.569 18.3522C111.939 18.2622 111.101 17.6226 110.894 17.0236C110.507 15.9203 110.624 14.6502 110.331 13.4973C108.755 7.25525 102.882 2.90924 96.4869 3.18396C90.0107 3.45868 84.5523 8.32262 83.4399 14.8124C82.386 20.9598 85.9799 27.301 91.8752 29.6879C92.0148 29.7419 92.1589 29.7825 92.2985 29.8365C93.483 30.3319 95.3295 30.476 94.5368 32.4126C93.8388 34.124 92.3526 33.2142 91.2221 32.8089C84.5477 30.413 80.1522 24.0493 80.1522 16.875V16.8705Z" fill="#558E60"/>
<path d="M110.254 31.1922C108.881 31.1922 107.552 31.2463 106.228 31.1787C104.476 31.0931 103.936 30.0708 104.72 28.5981C106.125 25.959 107.579 23.3379 109.232 20.8519C109.705 20.1403 111.128 19.3837 111.754 19.6179C112.551 19.9151 113.294 21.1266 113.502 22.0678C113.799 23.4279 113.493 24.9051 113.637 26.3148C113.709 27.0309 114.191 27.7064 114.492 28.3955C114.519 28.454 114.614 28.481 114.664 28.5396C115.398 29.4493 113.425 34.7276 112.281 34.669C111.655 34.6375 110.894 33.998 110.52 33.426C110.2 32.9306 110.345 32.138 110.254 31.1967V31.1922Z" fill="#558E60"/>
<path d="M100.725 31.5163C101.999 31.5839 103.017 31.4308 103.859 31.746C104.467 31.9712 105.102 32.7638 105.233 33.4079C105.3 33.7456 104.341 34.6509 103.801 34.6914C101.716 34.84 99.6079 34.8625 97.5272 34.7004C95.9374 34.5788 95.469 33.3628 96.4193 31.9397C97.6218 30.1337 98.9684 28.4313 100.225 26.6614C100.657 26.0534 101.216 25.4229 101.328 24.7429C101.441 24.0718 101.058 23.3197 100.891 22.6036C100.18 22.8153 99.099 22.8153 98.8287 23.2837C98.1307 24.4997 97.302 25.504 96.1491 24.3556C95.6492 23.8556 95.8789 22.0992 96.3608 21.239C97.4912 19.2214 100.229 18.6675 102.288 19.7393C104.395 20.8382 105.359 23.1801 104.485 25.4364C104.057 26.5353 103.377 27.5441 102.751 28.5574C102.175 29.4897 101.517 30.3679 100.725 31.5208V31.5163Z" fill="#558E60"/>
<path d="M95.4015 15.2762C95.4015 12.8217 95.4195 10.6014 95.3924 8.38564C95.3789 7.12912 95.6897 5.90864 97.1308 6.18336C97.7704 6.30496 98.581 7.57498 98.6351 8.36763C98.8242 11.0428 98.6801 13.736 98.7161 16.4246C98.7386 17.9379 98.0361 18.6224 96.5544 18.6089C94.9106 18.5954 93.2487 18.7485 91.6409 18.5143C90.9924 18.4198 90.4655 17.4875 89.8845 16.9381C90.461 16.3841 90.9654 15.5104 91.6364 15.3528C92.7488 15.0871 93.9693 15.2807 95.397 15.2807L95.4015 15.2762Z" fill="#558E60"/>
<path d="M773.427 99.46C773.427 102.545 773.508 105.531 773.404 108.503C773.283 112.111 770.905 114.601 767.617 114.772C763.974 114.962 761.028 112.187 761.046 108.598C761.069 104.954 764.235 102.131 767.91 102.5C768.563 102.568 769.202 102.748 769.955 102.892V100.262C768.694 99.2483 767.716 98.4692 766.744 97.6856C767.635 96.9109 768.527 96.1318 769.419 95.3572C769.585 95.4923 769.747 95.6274 769.914 95.7625V92.8982C766.595 92.637 763.307 92.5965 760.096 92.0695C756.484 91.4796 756.349 91.0562 756.926 87.4308C757.628 82.9902 758.362 78.5496 759.069 74.109C759.258 72.9201 759.578 71.7401 761.078 71.9518C762.582 72.1634 762.587 73.4019 762.402 74.5864C761.677 79.1711 760.934 83.7513 760.164 88.5162C763.735 89.7637 767.324 89.8628 770.743 88.6288C777.183 86.3094 783.457 86.4085 789.879 88.6693C793.585 89.9753 797.476 89.7051 801.16 88.3901C806.839 86.3634 812.424 86.3364 818.108 88.363C822.188 89.8177 826.399 89.8583 830.484 88.4171C836.316 86.3634 842.031 86.3634 847.868 88.4441C851.525 89.7502 855.317 89.8132 859.203 88.5477C857.933 80.6483 856.69 72.8885 855.434 65.1288C854.785 61.134 854.128 57.1393 853.443 53.1491C852.966 50.3613 852.281 49.7984 849.394 49.7984C835.433 49.7893 821.472 49.7984 807.515 49.7984C795.053 49.7984 782.596 49.7984 770.135 49.7984C767 49.7984 766.415 50.2803 765.87 53.4328C765.154 57.5716 764.465 61.7105 763.812 65.8583C763.613 67.1104 763.154 68.2768 761.762 67.8129C761.145 67.6058 760.474 66.2186 760.565 65.453C761.024 61.5168 761.722 57.6077 762.37 53.4958C758.97 52.7122 756.876 50.3208 755.066 47.5871C753.674 45.4884 751.922 44.0562 749.233 43.8716C748.639 43.831 748.116 42.7772 747.562 42.1917C748.189 41.6783 748.783 40.7731 749.441 40.728C752.521 40.5118 754.912 41.962 756.817 44.3084C758.092 45.8757 759.272 47.5375 760.686 48.9652C761.771 50.0686 762.807 50.2622 764.185 48.74C765.266 47.551 767.203 47.0511 768.842 46.4927C769.693 46.1999 770.725 46.4431 771.909 46.4431C770.806 41.1379 769.752 36.1703 768.739 31.1938C767.829 26.7217 768.545 25.5778 773.026 24.3798C772.355 21.3083 773.193 18.5566 774.859 15.9085C775.35 15.1293 775.422 13.8953 775.273 12.9361C774.895 10.4951 774.323 8.08563 773.76 5.67618C773.377 4.02785 773.936 2.81187 775.409 2.15884C776.557 1.64993 777.804 1.25811 779.047 1.10499C782.425 0.695157 783.312 1.40223 783.974 4.7079C784.182 5.73473 784.416 6.76156 784.564 7.8019C784.988 10.7698 785.929 13.2333 788.676 15.0843C790.113 16.0526 790.874 18.1963 791.622 19.9437C792.225 21.3534 792.356 22.9657 792.707 24.5555C796.215 24.6951 799.377 25.0103 802.462 22.4432C804.84 20.4661 808.218 19.7095 811.095 18.2999C811.721 17.9936 812.46 17.2731 812.559 16.6471C813.145 12.9631 815.631 10.5491 818.963 10.6572C822.305 10.7698 824.71 13.2963 824.994 16.9938C825.016 17.2866 825.061 17.5748 825.106 17.9441C836.343 20.7499 843.413 27.4468 844.981 39.2643C849.466 41.1153 849.782 41.6287 849.174 46.245C849.516 46.308 849.863 46.3981 850.214 46.4296C854.285 46.7764 856.145 48.3932 856.821 52.4555C858.415 62.0708 859.937 71.6951 861.491 81.3194C861.86 83.6117 862.095 85.9401 862.64 88.1919C863.175 90.4032 862.338 91.3445 860.28 91.8849C855.573 93.1234 850.903 93.1504 846.323 91.5381C841.517 89.8447 836.798 89.8853 832.006 91.5066C826.863 93.245 821.697 93.2135 816.554 91.421C811.996 89.8357 807.434 89.8267 802.876 91.4075C797.657 93.218 792.504 92.9883 787.19 91.5336C784.074 90.6824 780.691 90.3582 777.458 90.4798C773.332 90.6374 773.085 91.2949 773.684 95.8256C774.566 95.8706 775.503 95.9652 776.44 95.9652C800.156 95.9742 823.877 95.9697 847.593 95.9697C848.268 95.9697 848.944 95.9427 849.62 95.9787C850.849 96.0372 852.461 95.6815 852.574 97.537C852.7 99.5951 850.948 99.2574 849.327 99.4465C849.327 102.45 849.372 105.495 849.313 108.535C849.25 111.786 847.133 114.277 844.161 114.7C841.535 115.074 839.396 114.205 837.951 111.971C836.613 109.908 836.568 107.688 837.784 105.571C839.104 103.279 841.189 102.27 843.837 102.509C844.422 102.563 845.003 102.712 845.76 102.847V99.46H773.427ZM841.279 39.6832C841.306 28.0638 829.767 19.7861 815.658 20.9886C804.912 21.9028 795.062 31.3965 796.472 39.6832C797.26 39.6832 798.075 39.6832 798.89 39.6832C807.141 39.6832 815.387 39.6832 823.638 39.6832C824.314 39.6832 825.079 39.521 825.638 39.7868C826.273 40.0885 827.236 40.9262 827.142 41.2775C826.957 41.9575 826.205 42.597 825.534 42.9843C825.079 43.2456 824.363 43.0474 823.764 43.0474C813.865 43.0474 803.966 43.0474 794.067 43.0519C793.283 43.0519 792.495 43.1195 791.712 43.1555C791.865 45.8487 792.563 46.4251 795.58 46.4296C811.028 46.4386 826.48 46.4341 841.927 46.4296C842.526 46.4296 843.139 46.4477 843.72 46.3215C845.314 45.9748 846.129 45.0155 845.918 43.0474C841.747 43.0474 837.644 43.0474 833.542 43.0474C832.24 43.0474 830.758 43.1555 830.812 41.2775C830.862 39.5481 832.317 39.7012 833.505 39.6877C836.104 39.6652 838.703 39.6787 841.288 39.6787L841.279 39.6832ZM792.126 39.5481C793.432 35.6569 794.68 31.9414 795.959 28.1178C793.5 28.1178 790.883 28.2169 788.28 28.0503C787.591 28.0052 786.956 27.1405 786.294 26.6496C786.789 26.0101 787.222 25.3076 787.798 24.7536C788.059 24.5014 788.591 24.5329 789.068 24.4248C788.6 21.3804 788.356 18.399 785.434 16.6966C783.177 15.3815 782.119 13.3999 781.736 10.8644C781.407 8.67561 780.826 6.52737 780.326 4.2125C779.138 4.49623 778.223 4.7124 777.124 4.97812C777.62 7.36505 777.998 9.57183 778.552 11.7291C779.174 14.134 778.917 16.3048 777.435 18.3314C777.043 18.8674 776.728 19.4934 776.512 20.1239C775.44 23.3124 776.377 24.6365 779.673 24.6635C779.822 24.6635 779.975 24.6635 780.124 24.6635C781.367 24.677 782.722 24.7041 782.736 26.3794C782.754 28.0548 781.425 28.1268 780.164 28.1223C777.408 28.1223 774.656 28.1223 771.589 28.1223C772.832 34.1572 773.99 39.8633 775.219 45.5559C775.296 45.9072 775.935 46.3756 776.323 46.3801C780.335 46.4386 784.353 46.4161 788.397 46.4161C787.785 41.5792 788.397 40.5749 792.117 39.5436L792.126 39.5481ZM770.031 108.476C769.887 107.058 769.04 106.049 767.392 105.887C765.811 105.734 764.465 107.004 764.496 108.598C764.532 110.264 765.46 111.242 767.09 111.422C768.604 111.588 769.995 110.228 770.031 108.476ZM840.328 108.512C840.392 110.273 841.801 111.611 843.31 111.422C844.936 111.219 845.85 110.228 845.863 108.562C845.877 106.963 844.508 105.711 842.927 105.891C841.283 106.08 840.446 107.094 840.328 108.512ZM821.463 17.3496C821.517 15.1609 820.549 14.098 818.67 14.1746C816.824 14.2511 815.955 15.377 816.112 17.3496H821.467H821.463Z" fill="#558E60"/>
<path d="M265.085 36.3666C286.194 32.579 307.055 32.579 327.911 36.3035C327.654 34.0562 326.398 32.6511 323.722 32.3088C318.075 31.5837 312.409 30.728 306.73 30.5299C299.088 30.2596 291.427 30.5389 283.775 30.6199C282.582 30.6334 281.343 30.6785 281.213 29.1607C281.068 27.5034 282.321 27.3233 283.627 27.2422C295.341 26.5036 307.027 26.6702 318.687 28.0889C319.259 28.1564 319.849 28.0979 320.714 28.0979C320.714 23.905 320.714 19.7977 320.714 15.6949C320.714 14.4203 320.665 13.1368 320.768 11.8713C321.002 9.03848 322.912 7.06588 325.736 7.04787C336.995 6.98482 348.254 6.98482 359.513 7.04336C362.544 7.05687 364.602 9.16458 364.616 12.1955C364.665 23.3781 364.661 34.5651 364.616 45.7477C364.607 48.7065 362.697 50.8368 359.752 50.8998C353.226 51.0394 346.691 51.0124 340.165 50.8818C339.458 50.8683 338.774 49.7379 338.08 49.1254C338.859 48.5985 339.634 47.6347 340.426 47.6212C346.353 47.4906 352.285 47.5581 358.216 47.5491C360.896 47.5491 361.233 47.2384 361.238 44.6127C361.251 34.1778 361.211 23.7474 361.274 13.3124C361.287 11.1777 360.504 10.3986 358.36 10.4121C347.925 10.4796 337.495 10.4346 327.06 10.4481C324.389 10.4481 324.114 10.7499 324.11 13.452C324.101 18.5502 324.11 23.6438 324.11 28.859C329.001 29.7552 331.153 32.9528 332.059 37.497C333.108 42.7843 334.617 47.986 335.644 53.2777C336.486 57.6147 337.904 61.659 340.359 65.316C343.187 69.5269 344.322 74.1206 343.984 79.1827C343.782 82.2452 343.836 85.3392 343.975 88.4107C344.156 92.3558 343.741 95.067 337.868 97.4089C336.319 98.0259 335.918 98.787 335.927 100.345C335.963 107.893 335.045 108.772 327.564 108.772C327.262 108.772 326.965 108.772 326.663 108.772C320.507 108.772 319.39 107.7 319.102 101.521C319.093 101.309 319.012 101.097 318.962 100.872H274.169C274.169 101.746 274.2 102.696 274.164 103.642C274.047 106.596 272.169 108.609 269.246 108.74C266.923 108.844 264.59 108.844 262.27 108.74C259.352 108.609 257.222 106.578 257.433 103.637C257.69 100.048 257.127 97.544 253.177 96.2245C250.462 95.3147 249.25 92.7341 249.309 89.6897C249.399 85.0374 249.169 80.3762 249.403 75.7329C249.52 73.4676 249.809 70.851 251.016 69.072C256.492 60.988 258.046 51.6654 260.14 42.478C260.672 40.1406 261.198 37.7987 261.793 35.4748C262.698 31.9305 264.981 29.7642 268.562 29.0662C270.989 28.5933 273.439 28.1519 275.898 27.9898C276.65 27.9403 277.47 28.8635 278.258 29.3409C277.596 29.9894 277.033 31.0298 276.259 31.2189C274.083 31.7548 271.818 31.899 269.602 32.2818C267.377 32.6646 265.747 33.8085 265.085 36.3621V36.3666ZM333.365 58.4164C332.347 54.0569 331.41 50.0531 330.482 46.0449C329.549 42.0186 327.081 39.6542 323.078 38.9517C310.058 36.7088 296.93 36.5918 283.807 37.4564C277.848 37.8483 271.935 39.0147 266.017 39.9335C265.256 40.0505 264.108 40.6811 263.959 41.28C262.545 46.8601 261.307 52.4851 259.946 58.4119C261.081 58.4119 261.96 58.4119 262.842 58.4119C276.876 58.4119 290.909 58.3984 304.947 58.4344C306.401 58.4344 308.64 57.8174 308.608 60.1683C308.577 62.4832 306.347 61.8527 304.888 61.8572C290.179 61.8887 275.47 61.8662 260.757 61.9067C259.955 61.9067 258.793 62.1094 258.42 62.6498C257.168 64.4603 256.199 66.4689 255.028 68.5676C259.392 70.3916 262.707 73.6927 267.477 74.0801C285.541 75.5618 303.605 75.242 321.691 74.5349C327.938 74.2917 333.036 71.7157 338.157 68.3379C337.251 66.7166 336.252 65.1358 335.468 63.4515C334.864 62.1544 334.004 61.8166 332.644 61.8392C327.992 61.9157 323.34 61.8662 318.687 61.8662C317.336 61.8662 315.94 62.0734 314.648 61.7941C313.738 61.6005 312.355 60.8394 312.261 60.1728C312.036 58.6055 313.436 58.3759 314.733 58.3984C315.409 58.4119 316.084 58.3984 316.76 58.3984C322.155 58.3984 327.546 58.3984 333.369 58.3984L333.365 58.4164ZM252.961 87.4334C252.358 91.5992 253.006 93.0809 256.762 94.2609C260.1 95.3102 263.581 96.1794 267.053 96.4812C286.748 98.2016 306.469 98.2241 326.159 96.4677C330.059 96.1209 333.955 94.9995 337.684 93.725C340.625 92.7206 341.233 90.4868 340.377 87.9468C335.945 88.9016 331.617 90.4148 327.217 90.667C314.422 91.4011 301.596 91.6308 288.783 92.0586C288.486 92.0676 288.085 92.1667 287.901 92.0181C287.22 91.4686 286.612 90.8381 285.982 90.2346C286.599 89.6897 287.144 89.0141 287.855 88.6538C288.328 88.4107 289.031 88.6133 289.63 88.6088C297.358 88.5638 305.086 88.5413 312.81 88.4557C314.891 88.4332 316.967 88.217 318.39 88.1314C319.998 84.3664 321.408 81.0562 322.646 78.1649H270.665C271.926 81.1463 273.327 84.461 274.871 88.1224C276.272 88.2125 278.24 88.181 280.127 88.5413C280.897 88.6899 281.501 89.6942 282.181 90.3067C281.46 90.7931 280.726 91.7298 280.024 91.7028C270.895 91.365 261.721 91.2344 252.961 87.4334ZM340.377 71.8553C340.08 71.7877 339.782 71.7202 339.485 71.6571C336.36 73.4225 333.117 75.0123 330.149 77.0119C328.073 78.4081 326.118 80.169 324.587 82.1371C323.452 83.5963 323.092 85.6589 322.389 87.4514C322.633 87.7216 322.876 87.9918 323.119 88.2665C327.758 87.2127 332.442 86.312 337.008 85.0059C338.323 84.6321 340.129 83.1819 340.273 82.0425C340.692 78.6963 340.395 75.26 340.377 71.8598V71.8553ZM253.529 71.4094C252.394 75.2735 252.565 78.8314 252.997 82.3803C253.065 82.9432 253.668 83.5963 254.2 83.9295C259.203 87.0461 264.855 87.2082 270.809 87.8477C269.026 77.6965 260.212 75.9536 253.529 71.4094ZM260.662 99.0573C260.662 100.377 260.717 101.552 260.649 102.719C260.545 104.651 261.446 105.43 263.333 105.353C265.121 105.286 266.914 105.331 268.701 105.331C270.057 105.331 270.796 104.673 270.841 103.309C270.872 102.358 270.845 101.408 270.845 100.399C267.458 99.9535 264.301 99.5346 260.662 99.0527V99.0573ZM322.624 100.372C322.124 105.056 322.376 105.344 326.785 105.344C326.934 105.344 327.082 105.344 327.231 105.344C332.973 105.344 333.135 105.164 332.523 99.4221C332.514 99.3545 332.451 99.296 332.347 99.1203C329.172 99.5301 325.947 99.9445 322.628 100.372H322.624Z" fill="#558E60"/>
<path d="M339.017 32.1466C339.017 34.9163 339.152 37.3213 338.94 39.6947C338.873 40.4693 337.9 41.1629 337.341 41.8925C336.796 41.1449 335.792 40.4063 335.779 39.6497C335.657 32.5204 335.72 25.3911 335.698 18.2619C335.698 16.6181 336.504 15.9785 338.071 16.0101C339.944 16.0461 341.827 15.9695 343.701 16.0371C348.285 16.1947 351.74 19.649 351.767 24.0401C351.794 28.341 348.515 31.8043 344.011 32.1286C342.453 32.2412 340.881 32.1466 339.017 32.1466ZM339.138 28.7103C342.363 28.5212 345.745 29.7101 347.808 26.2603C348.781 24.63 348.632 22.9367 347.488 21.4324C345.254 18.4916 342.129 19.6985 339.138 19.4463V28.7103Z" fill="#558E60"/>
</svg>
