<svg width="43" height="43" viewBox="0 0 43 43" fill="none" xmlns="http://www.w3.org/2000/svg">
<path d="M21.0985 42.4453C9.43611 42.4198 -0.0120224 32.9069 1.14828e-05 21.2024C0.0135496 9.46484 9.52937 -0.0449673 21.2158 0.000159946C32.8647 0.0452872 42.3218 9.60023 42.2827 21.2852C42.2436 32.9957 32.7594 42.4694 21.1 42.4438L21.0985 42.4453ZM21.7453 41.0253C33.2603 40.6132 41.9382 30.5663 40.7619 19.1491C39.6789 8.62999 30.2894 0.43639 19.1821 1.51493C8.74567 2.53029 0.359525 11.9378 1.52381 23.2918C2.56925 33.48 11.2788 41.3126 21.7453 41.0253Z" fill="#016956"/>
<path d="M30.8595 21.2144C30.8595 23.4422 30.8625 25.6685 30.8595 27.8963C30.8565 29.8714 29.7795 30.977 27.8134 30.9815C23.3609 30.9935 18.9083 30.9935 14.4558 30.9815C12.5168 30.9755 11.4262 29.8683 11.4247 27.9399C11.4202 23.4663 11.4202 18.9927 11.4247 14.5206C11.4262 12.5831 12.5078 11.4715 14.4422 11.4655C18.9144 11.4504 23.3865 11.4489 27.8586 11.4655C29.7885 11.473 30.858 12.5891 30.8625 14.5341C30.8671 16.7619 30.8625 18.9882 30.8625 21.216L30.8595 21.2144ZM21.1391 29.8789C23.385 29.8789 25.6323 29.8804 27.8781 29.8789C29.1447 29.8774 29.7599 29.2892 29.7629 28.0226C29.7735 23.4904 29.7735 18.9581 29.7629 14.4243C29.7599 13.1562 29.1462 12.5666 27.8811 12.5651C23.388 12.5621 18.8963 12.5621 14.4031 12.5651C13.1366 12.5651 12.5213 13.1547 12.5183 14.4213C12.5078 18.9536 12.5078 23.4859 12.5183 28.0196C12.5213 29.2877 13.1351 29.8759 14.4001 29.8789C16.646 29.8819 18.8933 29.8789 21.1391 29.8789Z" fill="#016956"/>
<path d="M26.5168 21.2085C26.5288 24.1839 24.1356 26.6298 21.1978 26.6434C18.1998 26.6569 15.7916 24.2742 15.7645 21.2657C15.7374 18.2662 18.1442 15.8053 21.1105 15.8008C24.098 15.7948 26.5048 18.2031 26.5168 21.2085ZM21.1451 25.5498C23.5128 25.5453 25.4593 23.5973 25.4623 21.2311C25.4653 18.8574 23.5429 16.9169 21.1647 16.8944C18.782 16.8733 16.8114 18.8439 16.8189 21.2401C16.825 23.6078 18.779 25.5528 21.1451 25.5498Z" fill="#016956"/>
<path d="M28.6934 15.2698C28.6904 16.1558 27.9744 16.8718 27.0839 16.8748C26.1874 16.8794 25.4743 16.1784 25.4653 15.2834C25.4563 14.3703 26.1979 13.6212 27.0989 13.6362C27.9744 13.6513 28.6949 14.3898 28.6934 15.2683V15.2698ZM27.6841 15.3601C27.6796 15.2743 27.6766 15.1871 27.672 15.1013C27.4554 14.987 27.2238 14.7644 27.0252 14.7915C26.8477 14.8155 26.5739 15.1269 26.589 15.2894C26.6055 15.4699 26.8974 15.7557 27.0734 15.7572C27.2749 15.7602 27.4795 15.503 27.6841 15.3586V15.3601Z" fill="#016956"/>
</svg>
