<svg width="46" height="46" viewBox="0 0 46 46" fill="none" xmlns="http://www.w3.org/2000/svg">
<path d="M30.3691 33.5976C29.7797 33.6749 29.1921 33.7576 28.6027 33.8276C27.0844 34.0091 25.814 34.6686 24.7682 35.7844C24.3586 36.221 23.9597 36.6864 23.4781 37.0278C23.2589 37.1842 22.8474 37.0692 22.5222 37.0764C22.5276 36.7547 22.3982 36.3127 22.5599 36.1312C24.2795 34.2014 26.1321 32.4764 28.9657 32.4728C29.6467 32.4728 30.1768 32.1584 30.1516 31.418C30.1247 30.622 29.5389 30.3849 28.8273 30.419C26.2147 30.5466 23.9363 31.4737 22.0334 33.2832C21.5555 33.7378 21.1044 34.2176 20.6283 34.674C19.4406 35.8096 18.039 35.6748 17.137 34.2984C15.5863 31.9302 13.4067 30.6472 10.5946 30.4316C9.40689 30.3399 8.63604 31.0425 8.76003 32.0703C8.85526 32.8573 9.47697 33.4719 10.4257 33.3407C12.0429 33.1161 12.7778 33.8097 13.2594 35.2723C13.599 36.3019 14.3375 37.1949 14.8136 38.1886C14.9538 38.4797 14.8029 38.9109 14.7867 39.2775C14.4327 39.1643 13.908 39.1625 13.7517 38.9217C13.0869 37.8975 12.4454 36.8392 11.9674 35.7197C11.6368 34.9471 11.2684 34.6398 10.4059 34.674C8.84448 34.7333 7.63879 33.7845 7.43394 32.3794C7.34769 31.7846 7.50402 31.1539 7.55972 30.41C6.30192 30.41 4.97225 30.41 3.64257 30.41C3.2239 30.41 2.80344 30.419 2.38477 30.4046C1.01197 30.3489 0.0219011 29.3912 0.000338813 28.1046C-0.0212235 26.7857 0.988611 25.7508 2.39555 25.7148C3.70726 25.6807 5.02076 25.7076 6.23185 25.7076C6.61817 24.0509 6.92543 22.4751 7.36746 20.937C7.62082 20.0565 8.08261 19.2335 8.47433 18.3944C8.67737 17.9596 8.98643 17.5822 9.52189 17.8751C10.0484 18.1626 9.90642 18.6064 9.66564 19.0377C8.58393 20.9747 7.98738 23.0573 7.81308 25.2656C7.8041 25.3788 7.82566 25.492 7.83644 25.6555H38.3184C38.0434 24.324 37.8907 23.0231 37.5044 21.7941C34.0436 10.7685 19.9221 7.52701 11.9602 15.9076C11.8165 16.0585 11.6961 16.2975 11.5236 16.3442C11.2181 16.4269 10.8821 16.3927 10.5569 16.4089C10.5569 16.0837 10.4275 15.6542 10.5856 15.453C11.0456 14.869 11.5901 14.3425 12.1561 13.8555C14.5243 11.8179 17.252 10.535 20.3426 10.0336C20.4863 10.0103 20.6283 9.96355 20.8277 9.91324C20.4612 8.63927 20.5905 7.50545 21.8088 6.76874C22.6551 6.25663 23.541 6.29437 24.3442 6.86397C25.3935 7.60607 25.5391 8.65184 25.1456 9.92043C29.1095 10.5332 32.4947 12.2312 35.1954 15.1744C37.8835 18.1033 39.3174 21.582 39.5762 25.6196C39.7289 25.6501 39.9301 25.6322 40.0451 25.7238C40.2985 25.925 40.5087 26.182 40.7351 26.4156C40.462 26.6384 40.2176 26.9205 39.9086 27.0643C39.6858 27.1667 39.3785 27.0876 39.109 27.0876C27.1006 27.0876 15.0922 27.0876 3.08375 27.0876C1.82954 27.0876 1.39829 27.3302 1.38033 28.04C1.36056 28.7839 1.8529 29.0803 3.1125 29.0803C16.3787 29.0803 29.6449 29.0803 42.9111 29.0803C43.1807 29.0803 43.4556 29.1019 43.7179 29.0588C44.2947 28.9653 44.7295 28.5988 44.5804 28.0292C44.4852 27.6662 44.0234 27.3877 43.6946 27.1074C43.6047 27.0301 43.3603 27.1415 43.2633 27.0661C43.0082 26.8702 42.7961 26.6204 42.5679 26.3922C42.8285 26.164 43.0657 25.7777 43.3532 25.7382C44.7008 25.5477 45.9245 26.6079 45.9963 27.9429C46.0682 29.2708 45.0763 30.3543 43.691 30.3938C42.4098 30.4298 41.125 30.401 39.7774 30.401C40.2051 32.259 39.2132 32.9741 37.8404 33.966C35.5332 35.6317 33.5136 37.7915 32.8775 40.7923C32.599 42.1076 32.3582 43.4354 32.1767 44.7669C32.0599 45.6222 31.749 46.0121 30.8075 45.9996C27.2749 45.951 23.7404 45.9636 20.206 45.9942C19.3723 46.0014 19.0129 45.766 18.8386 44.8783C18.7002 44.1793 18.1917 43.5073 17.712 42.9359C17.2771 42.4184 16.6159 42.0968 16.1451 41.6026C15.9654 41.414 16.0391 40.9863 15.996 40.6665C16.3392 40.6557 16.8028 40.4922 17.0058 40.6557C18.2672 41.6745 19.8071 42.4669 20.1863 44.28C20.2168 44.4255 20.5977 44.5854 20.8169 44.5872C23.9615 44.607 27.106 44.6124 30.2505 44.5746C30.4733 44.5711 30.8273 44.2243 30.8865 43.9799C31.1112 43.0509 31.2333 42.0986 31.4076 41.157C31.8371 38.8193 32.9188 36.8266 34.5809 35.1375C34.8019 34.9129 35.0157 34.6793 35.2331 34.4511C35.1631 34.3739 35.093 34.2966 35.0247 34.2193C34.1514 34.992 33.2836 35.7718 32.4049 36.5373C31.9844 36.9039 31.5909 37.6801 30.9476 37.0584C30.2828 36.4169 31.0716 36.0126 31.4472 35.6137C31.891 35.1411 32.3941 34.7243 32.8721 34.2822C32.7984 34.1816 32.7229 34.081 32.6493 33.9804C31.9377 34.4242 31.1848 34.8141 30.5236 35.3244C29.936 35.779 29.4455 36.3594 28.919 36.8913C28.565 37.2489 28.1176 37.495 27.787 37.026C27.6342 36.8104 27.7528 36.2067 27.9631 35.9713C28.7106 35.1304 29.5515 34.3721 30.3565 33.5815C31.6646 33.0065 32.9637 32.4369 34.4479 32.4405C35.0499 32.4405 35.4398 32.0182 35.3985 31.3659C35.3607 30.7586 34.951 30.41 34.3904 30.437C33.4237 30.4855 32.4624 30.649 31.4238 30.7712C31.7275 32.0775 31.1183 32.8663 30.3726 33.5958L30.3691 33.5976ZM15.5396 30.4406C16.4757 31.5223 17.4119 32.5842 18.3265 33.6659C18.7038 34.1133 19.1135 34.2211 19.5538 33.8276C20.8008 32.7136 22.0262 31.5744 23.2661 30.4406H15.5396ZM36.7012 32.5033C37.3319 32.4441 38.1135 32.6543 38.4369 31.8367C38.5519 31.5456 38.4675 31.0317 38.2698 30.7873C37.8476 30.2681 37.2474 30.3471 36.703 30.5322V32.5033H36.7012ZM24.1519 9.01122C24.1519 8.86926 24.1519 8.72731 24.1537 8.58536C23.7638 8.31763 23.3649 7.83248 22.9858 7.84865C22.6426 7.86302 22.1251 8.37692 22.037 8.75247C21.9005 9.33285 22.3694 9.83418 22.9678 9.75871C23.3883 9.7048 23.7602 9.27356 24.1537 9.01122H24.1519Z" fill="#558E60"/>
<path d="M31.979 6.73099C31.979 3.1768 34.818 0.194015 38.3758 0.00893898C41.9156 -0.176137 45.0943 2.53532 45.4393 6.04099C45.4626 6.27818 45.5255 6.5513 45.4393 6.75075C45.3369 6.98794 45.0637 7.34372 44.9128 7.32215C44.6612 7.28622 44.327 7.03106 44.2444 6.79208C44.0898 6.35185 44.1366 5.84514 44.0198 5.38514C43.3909 2.89469 41.0478 1.16073 38.4962 1.27033C35.9123 1.37994 33.7345 3.32055 33.2907 5.90982C32.8702 8.36254 34.3041 10.8925 36.6562 11.8448C36.7119 11.8664 36.7694 11.8826 36.8251 11.9041C37.2977 12.1018 38.0344 12.1593 37.7182 12.9319C37.4397 13.6148 36.8467 13.2518 36.3957 13.0901C33.7327 12.1341 31.979 9.59518 31.979 6.73279V6.73099Z" fill="#558E60"/>
<path d="M43.9892 12.4451C43.4411 12.4451 42.9111 12.4666 42.3828 12.4397C41.6838 12.4055 41.4682 11.9976 41.7808 11.4101C42.3415 10.3571 42.9218 9.31134 43.5813 8.31947C43.77 8.03557 44.3378 7.7337 44.5875 7.82713C44.9056 7.94573 45.2021 8.42908 45.2847 8.80462C45.4033 9.34728 45.2811 9.93664 45.3386 10.4991C45.3674 10.7848 45.5596 11.0543 45.68 11.3292C45.6908 11.3526 45.7285 11.3634 45.7483 11.3867C46.0412 11.7497 45.2542 13.8556 44.7978 13.8322C44.548 13.8197 44.2443 13.5645 44.0952 13.3363C43.9676 13.1386 44.0251 12.8224 43.9892 12.4469V12.4451Z" fill="#558E60"/>
<path d="M40.1872 12.5742C40.6957 12.6012 41.1018 12.5401 41.4378 12.6659C41.6804 12.7557 41.9337 13.072 41.9859 13.3289C42.0128 13.4637 41.6301 13.8249 41.4145 13.841C40.5825 13.9003 39.7416 13.9093 38.9114 13.8446C38.2771 13.7961 38.0903 13.311 38.4694 12.7431C38.9492 12.0226 39.4864 11.3434 39.9877 10.6372C40.1602 10.3947 40.3831 10.1431 40.428 9.87176C40.4729 9.60403 40.3202 9.30396 40.2537 9.01826C39.9698 9.10271 39.5385 9.10271 39.4307 9.28958C39.1522 9.77473 38.8216 10.1754 38.3616 9.71723C38.1621 9.51778 38.2538 8.81701 38.446 8.47381C38.8971 7.66882 39.9895 7.4478 40.8107 7.87545C41.6516 8.31389 42.0362 9.24825 41.6876 10.1485C41.5169 10.5869 41.2456 10.9894 40.9958 11.3937C40.7658 11.7657 40.5034 12.116 40.1872 12.576V12.5742Z" fill="#558E60"/>
<path d="M38.0632 6.09511C38.0632 5.11582 38.0704 4.22997 38.0596 3.34591C38.0542 2.84459 38.1782 2.35764 38.7532 2.46725C39.0084 2.51576 39.3318 3.02248 39.3534 3.33873C39.4288 4.40606 39.3713 5.48058 39.3857 6.55331C39.3947 7.15705 39.1144 7.43017 38.5232 7.42478C37.8674 7.41939 37.2043 7.48049 36.5628 7.38705C36.3041 7.34931 36.0939 6.97736 35.8621 6.75815C36.0921 6.53713 36.2933 6.18854 36.561 6.12565C37.0049 6.01964 37.4918 6.0969 38.0614 6.0969L38.0632 6.09511Z" fill="#558E60"/>
</svg>
