<svg width="43" height="43" viewBox="0 0 43 43" fill="none" xmlns="http://www.w3.org/2000/svg">
<path d="M42.6339 21.2369C42.6204 32.9414 33.1512 42.4317 21.4918 42.4287C9.80236 42.4257 0.319622 32.8813 0.357228 21.1542C0.394834 9.44669 9.87757 -0.0255204 21.5369 5.1656e-05C33.1993 0.0256237 42.6474 9.53543 42.6339 21.2369ZM40.6919 21.2444C40.698 10.5959 32.1554 1.99618 21.6001 1.93601C10.9411 1.87734 2.27363 10.611 2.29319 21.1843C2.31274 31.8328 10.8358 40.4325 21.3895 40.4927C32.0486 40.5529 40.7386 31.8193 40.6919 21.246V21.2444Z" fill="#016956"/>
<path d="M31.4679 14.1444C31.0061 14.731 30.5458 15.3177 30.0705 15.9224C30.6451 15.7795 31.2483 15.6306 31.85 15.4801C31.8786 15.5162 31.9057 15.5538 31.9343 15.59C31.489 16.0533 31.0783 16.5542 30.5895 16.9663C30.245 17.2551 30.1352 17.547 30.1277 17.9847C30.0419 23.5549 25.9459 28.1895 20.4223 28.8438C17.8922 29.1447 15.4342 28.7611 13.1749 27.3441C14.1346 27.1982 15.0762 27.1515 15.9562 26.8928C16.8467 26.6311 17.6756 26.1618 18.5134 25.6849C16.9009 25.3119 15.6824 24.5673 15.0476 22.9246C15.5395 22.9006 15.9728 22.878 16.4045 22.8569C14.7408 22.0868 13.745 20.8713 13.6006 18.9655C14.1316 19.0948 14.5738 19.2031 15.0161 19.3129C13.6743 17.7861 13.1899 16.1932 14.1722 14.2121C16.3624 16.6354 18.9752 18.0644 22.2274 18.2239C22.1236 15.7584 23.1359 14.206 25.1983 13.654C26.3791 13.3381 27.5178 13.5472 28.4595 14.3008C28.9784 14.716 29.4071 14.728 29.9487 14.4979C30.3834 14.3129 30.8286 14.1549 31.2694 13.9864L31.4679 14.1459V14.1444Z" fill="#016956"/>
</svg>
